<?xml version="1.0" standalone="no"?>
<!DOCTYPE svg PUBLIC "-//W3C//DTD SVG 1.1//EN" "http://www.w3.org/Graphics/SVG/1.1/DTD/svg11.dtd" >
<svg xmlns="http://www.w3.org/2000/svg" xmlns:xlink="http://www.w3.org/1999/xlink" version="1.1">
<metadata>
Created by FontForge 20170731 at Sun Jun 20 14:11:01 2021
 By Aleksey,,,
copyright missing
</metadata>
<defs>
<font id="MAZIUSREVIEW20.09-Regular" horiz-adv-x="1228" >
  <font-face 
    font-family="MAZIUS REVIEW 20.09"
    font-weight="400"
    font-stretch="normal"
    units-per-em="2048"
    panose-1="0 0 5 0 0 0 0 0 0 0"
    ascent="1536"
    descent="-512"
    x-height="963"
    cap-height="1434"
    bbox="-981 -561 3310 1882"
    underline-thickness="102"
    underline-position="-307"
    unicode-range="U+0020-25CA"
  />
<missing-glyph horiz-adv-x="1024" 
d="M840 1536v-2048h-650v2048h650zM682 1399h-338v-68h133v-76h-135v-67h340v67h-135v76h135v68zM547 1135h-205v-213h340v69h-135v144zM477 1065v-74h-67v74h67zM682 866h-340v-67h135v-76h-135v-68h205v144h135v67zM682 743h-68v-135h-272v-69h340v204zM682 494h-205v-115
h70v47h67v-96h-204v164h-68v-232h340v232zM682 139h-340v-231h340v231zM614 72v-97h-204v97h204zM682 -139h-340v-68h143l-143 -96v-68h340v68h-209l143 96h66v68z" />
    <glyph glyph-name="T_h.liga" unicode="Th" horiz-adv-x="2250" 
d="M2093 33l137 -23v-10h-458v10l139 23v545q0 118 -43 193t-123 75q-193 0 -281 -105v-708l135 -23v-10h-458v10l141 23l-27 1382q-65 -5 -385 -20h-168v-1321l240 -62v-12h-684v12l240 62v1321h-258q-51 -54 -117.5 -163t-99.5 -177h-13l47 387h27q54 -8 121 -8h418
q180 0 368.5 32.5t261.5 69.5h181l24 -2l-18 -778h8q62 76 176.5 152.5t149.5 78.5q170 -9 244.5 -102.5t74.5 -274.5v-577z" />
    <glyph glyph-name="f_b.liga" unicode="fb" horiz-adv-x="1683" 
d="M1288 987q168 0 270.5 -119t102.5 -352q0 -76 -27 -147.5t-72 -126.5t-98 -101.5t-111.5 -80.5t-105 -55.5t-84.5 -33.5q-133 0 -243.5 36.5t-159.5 78.5l28 23l7 2v1275l-93 -32l-2 -2h-2v2q-4 3 -19 14t-19 14t-17 12.5t-18 12t-16.5 9.5t-18 9.5t-17 6.5t-19 5.5
t-19 3t-21.5 1.5q-82 0 -133 -88l-4 -416h295v-23l-78 -10l-217 6l-6 -878l135 -23v-10h-455v10l137 23v882h-137v29l137 8v97q0 74 74.5 196.5t171.5 217.5t154 98q72 -6 155 -39l226 16l24 -2l-26 -862h8q210 272 313 313zM1210 61q144 0 210.5 89.5t66.5 281.5
q0 178 -83.5 296t-180.5 118q-54 0 -114.5 -54t-133.5 -145v-428q0 -57 81.5 -107.5t153.5 -50.5z" />
    <glyph glyph-name="f_f.liga" unicode="ff" horiz-adv-x="1216" 
d="M1090 1442q-83 0 -134 -88l-4 -416h295v-23l-78 -10l-217 6l-6 -878l135 -23v-10h-454v10l137 23v882h-385l-8 -882l135 -23v-10h-455v10l137 23v882h-137v29l137 8v56q0 72 106 196t232 218.5t185 97.5q55 -5 123.5 -36.5t121.5 -78.5q60 69 115 112t92 44
q59 -5 130 -29t108 -55l-125 -125q-44 34 -64 48t-54 28t-68 14zM627 944l137 8v97q0 85 98 233q-71 59 -123.5 89t-101.5 30q-69 0 -150 -51.5t-106 -108.5l-2 -303h2z" />
    <glyph glyph-name="f_f_i.liga" unicode="ffi" horiz-adv-x="1787" 
d="M1636 33l136 -23v-10h-455v10l137 23v870l-199 4l-247 4l-7 -878l136 -23v-10h-455v10l137 23v882h-440l-8 -882l135 -23v-10h-455v10l137 23v882h-137v29l137 8v56q0 72 106 196t232 218.5t185 97.5q61 -5 155.5 -38t147.5 -75q134 151 205 154q59 -5 129.5 -29
t107.5 -55l-125 -125q-44 34 -64 48t-54 28t-68 14q-82 0 -133 -88l-4 -416h350l254 25l24 -5v-925zM715 946l104 6v97q0 84 101 235q-63 50 -146 83.5t-137 33.5q-69 0 -150 -51.5t-106 -108.5l-2 -303h2z" />
    <glyph glyph-name="f_f_j.liga" unicode="ffj" horiz-adv-x="1671" 
d="M1468 952l172 11v-988q0 -84 -65 -211t-156 -224.5t-157 -100.5q-56 5 -118 28.5t-100 55.5l125 125q44 -34 63.5 -48t49 -28t53.5 -14q104 0 113 82l10 1267h-2l-448 6l-7 -880l136 -23v-10h-455v10l137 23v882h-440l-8 -882l135 -23v-10h-455v10l137 23v882h-137v29
l137 8v56q0 72 106 196t232 218.5t185 97.5q61 -5 155.5 -38t147.5 -75q134 151 205 154q59 -5 129.5 -29t107.5 -55l-125 -125q-44 34 -64 48t-54 28t-68 14q-82 0 -133 -88l-4 -416h219l231 14h10zM715 946l104 6v97q0 84 101 235q-63 50 -146 83.5t-137 33.5
q-69 0 -150 -51.5t-106 -108.5l-2 -303h2z" />
    <glyph glyph-name="f_f_k.liga" unicode="ffk" horiz-adv-x="2304" 
d="M2214 33l135 -23v-10h-479v10l137 23h-4l-317 512l-78 -72v-440l135 -23v-10h-455v10l137 23v1319q-47 36 -134.5 63t-145.5 27q-82 0 -133 -88l-4 -414l28 -2h291v-23l-78 -10l-241 6l-7 -878l136 -23v-10h-455v10l137 23v882h-440l-8 -882l135 -23v-10h-455v10l137 23
v882h-137v29l137 8v56q0 72 106 196t232 218.5t185 97.5q61 -5 155.5 -38t147.5 -75q134 151 205 154q54 -4 144.5 -21.5t145.5 -40.5l82 23l25 -2l-33 -1018h12l439 416h-2l-134 32v13h367v-13l-170 -35l-321 -292l34 28zM381 938l334 8l104 6v97q0 84 101 235
q-63 50 -146 83.5t-137 33.5q-69 0 -150 -51.5t-106 -108.5l-2 -303h2z" />
    <glyph glyph-name="f_h.liga" unicode="fh" horiz-adv-x="1781" 
d="M1624 33l137 -23v-10h-458v10l139 23v545q0 118 -43 193t-123 75q-193 0 -281 -105v-708l135 -23v-10h-454v10l137 23v1360l-111 -39l-2 -2h-2v2q-4 3 -19 14t-19 14t-17 12.5t-18 12t-16.5 9.5t-18 9.5t-17 6.5t-19 5.5t-19 3t-21.5 1.5q-82 0 -133 -88l-4 -416h295v-23
l-78 -10l-217 6l-6 -876h8v-2l135 -23v-10h-455v10l129 21v884h-137v29l137 8v97q0 74 74.5 196.5t171.5 217.5t154 98q44 -3 99 -19t97 -39q64 8 181 35h24l-18 -782h8q62 76 176.5 152.5t149.5 78.5q170 -9 244.5 -102.5t74.5 -274.5v-577z" />
    <glyph glyph-name="f_i.liga" unicode="fi" horiz-adv-x="1198" 
d="M1047 33l135 -23v-10h-455v10l137 23v870l-198 4l-289 4l-6 -878l135 -23v-10h-455v10l137 23v882h-137v29l137 8v97q0 74 74.5 196.5t171.5 217.5t154 98q59 -5 129.5 -29t107.5 -55l-125 -125q-44 34 -64 48t-54 28t-68 14q-82 0 -133 -88l-4 -416l371 -2l274 27l25 -5
v-925z" />
    <glyph glyph-name="f_l.liga" unicode="fl" horiz-adv-x="1161" 
d="M1014 33l135 -23v-10h-455v10l137 23v1366l-129 -45l-2 -2h-2v2q-4 3 -19 14t-19 14t-17 12.5t-18 12t-16.5 9.5t-18 9.5t-17 6.5t-19 5.5t-19 3t-21.5 1.5q-82 0 -133 -88l-4 -416h295v-23l-78 -10l-217 6l-6 -878l135 -23v-10h-455v10l137 23v882h-137v29l137 8v97
q0 74 74.5 196.5t171.5 217.5t154 98q112 -8 190 -39l211 14l25 -2v-1501z" />
    <glyph glyph-name="f_t.liga" unicode="ft" horiz-adv-x="1359" 
d="M51 0v10l137 23v882h-137v29l137 8v97q0 74 74.5 196.5t171.5 217.5t154 98q59 -5 129.5 -29t107.5 -55l-125 -125q-44 34 -64 48t-54 28t-68 14q-82 0 -133 -88l-4 -416h4l375 16l6 2l178 263l25 -2l-9 -259h330v-59l-78 -10l-241 6l4 -637q-1 -76 31 -121t79 -45
q50 0 91 16.5t114 67.5l12 -12q-87 -70 -138.5 -108.5t-123.5 -82.5q-116 9 -174 69t-69 175l-9 682l-407 10l-6 -876l155 -23v-10h-475z" />
    <glyph glyph-name="f_u.liga" unicode="fu" horiz-adv-x="1708" 
d="M1552 47l140 -35v-12h-291l-25 4l19 217h-9q-63 -79 -173.5 -161.5t-143.5 -84.5q-170 9 -244.5 100t-74.5 271v563l-78 2l-15 -2l-280 4l-6 -880l135 -23v-10h-455v10l137 23v882h-137v29l137 8v97q0 74 74.5 196.5t171.5 217.5t154 98q59 -5 129.5 -29t107.5 -55
l-125 -125q-44 34 -64 48t-54 28t-68 14q-82 0 -133 -88l-4 -416h110l445 25v-580q0 -266 166 -266q58 0 138 27.5t134 91.5v694l-141 22v11h323v-916z" />
    <glyph glyph-name="f_y.liga" unicode="fy" horiz-adv-x="1630" 
d="M1348 963h364v-13l-174 -35l-424 -1228q-15 -58 -69.5 -110t-104.5 -78t-88 -36q-33 0 -154 64l95 151q111 -79 163 -79q25 0 42.5 5t39.5 26t37 59l144 370l-142 -22l-362 901l-60 -8l-278 6l-6 -903l135 -23v-10h-455v10l137 23v893h-137v28l137 9v86q0 74 74.5 196.5
t171.5 217.5t154 98q59 -5 129.5 -29t107.5 -55l-125 -125q-44 34 -64 48t-54 28t-68 14q-82 0 -133 -88l-4 -391h637v-9l-99 -18l322 -784l-2 -33l2 4l252 795l-141 32v13z" />
    <glyph glyph-name="g_y.liga" unicode="gy" horiz-adv-x="1986" 
d="M1704 963h364v-13l-174 -35l-424 -1228q-15 -58 -69.5 -110t-104.5 -78t-88 -36q-32 0 -153 64l94 151q111 -79 164 -79q25 0 42.5 5t39.5 26t37 59l143 370l-141 -22l-363 901l-43 6q-23 -79 -63 -82q-19 0 -99.5 19.5t-91.5 19.5q-21 0 -29 -2q117 -93 117 -242
q0 -61 -50 -132.5t-118 -126t-139.5 -91.5t-114.5 -37q-80 0 -157 23q-31 -25 -47 -48t-17 -59q0 -39 49 -43q31 -3 250 -12q88 -3 154 -11.5t127 -27t99.5 -48t61 -75.5t21.5 -108q-1 -68 -63 -132t-143.5 -104t-154 -64t-104.5 -24q-27 -2 -80 -2q-105 4 -179.5 19.5
t-119.5 40t-71 63.5t-34.5 80t-8.5 100q41 33 130.5 88.5t110.5 69.5h-12q-36 0 -79.5 51.5t-43.5 99.5q15 26 36 51t54.5 59t42.5 44q-106 39 -166.5 122t-60.5 187q0 59 32 118t81.5 104.5t107 81t111.5 54.5t92 19q116 0 205 -39q67 -20 143 -20q115 0 115 59l86 -24h362
v-9l-98 -18l321 -784l-2 -33l2 4l252 795l-141 32v13zM444 305q103 0 167.5 87.5t64.5 228.5q0 165 -61 248t-171 83q-105 0 -164 -78t-59 -225q0 -159 57 -251.5t166 -92.5zM311 -4q-98 -88 -98 -186q0 -99 70.5 -161t171.5 -65q104 -3 178.5 13.5t115.5 48.5t59.5 71.5
t18.5 89.5q0 41 -14 71.5t-46 51t-72 33.5t-103 20t-126 9.5t-155 3.5z" />
    <glyph glyph-name="r_i.liga" unicode="ri" horiz-adv-x="1208" 
d="M971 1284q-44 0 -75.5 31.5t-31.5 77.5q0 44 31.5 75t75.5 31t75 -31t31 -75q0 -46 -31 -77.5t-75 -31.5zM16 0v10l138 23v893l-99 24v13h250l25 -5l-19 -202h8q62 78 139.5 144.5t110.5 76.5q114 -5 189 -80l-123 -152q-40 45 -94 66q-115 41 -205 -70v-708l143 -23v-10
h-463zM737 0v10l137 23v895l-116 22v13h274l25 -5v-925l135 -23v-10h-455z" />
    <glyph glyph-name="r_p.liga" unicode="rp" horiz-adv-x="1820" 
d="M737 -512v14l170 39v797l2 590l-137 24v11h318l-25 -312h6q230 296 332 336q168 0 270.5 -119t102.5 -352q0 -76 -27 -147.5t-72 -126.5t-98 -101.5t-111.5 -80.5t-105 -55.5t-84.5 -33.5q-104 0 -188 23v-455l159 -37l2 -14h-514zM16 0v10l138 23v893l-99 24v13h250
l25 -5l-19 -202h8q62 78 139.5 144.5t110.5 76.5q114 -5 189 -80l-123 -152q-40 45 -94 66q-115 41 -205 -70v-708l143 -23v-10h-463zM1090 223q0 -52 82.5 -107t152.5 -55q144 0 210.5 89.5t66.5 281.5q0 178 -84 296t-181 118q-54 0 -114 -53.5t-133 -145.5v-424z" />
    <glyph glyph-name="r_u.liga" unicode="ru" horiz-adv-x="1826" 
d="M322 756q62 78 139.5 144.5t109.5 76.5q114 -5 189 -80l-123 -152q-40 45 -94 66q-115 41 -205 -70v-708l143 -23v-10h-463v10l138 23v882l-140 35v13h291l25 -5l-19 -202h9zM1671 47l139 -35v-12h-290l-25 4l18 217h-8q-63 -79 -173.5 -161.5t-143.5 -84.5
q-171 9 -245.5 100t-74.5 271v559l-108 13v10l291 35v-580q0 -266 166 -266q58 0 138 27.5t134 91.5v694l-141 22v11h323v-916z" />
    <glyph glyph-name="r_y.liga" unicode="ry" horiz-adv-x="1771" 
d="M16 0v10l138 23v893l-99 24v13h250l25 -5l-19 -202h8q62 78 139.5 144.5t110.5 76.5q114 -5 189 -80l-123 -152q-40 45 -94 66q-115 41 -205 -70v-708l143 -23v-10h-463zM762 952v11h393v-9l-98 -18l321 -784l-2 -33l2 4l252 795l-141 32v13h364v-13l-174 -35l-424 -1228
q-15 -58 -69.5 -110t-104.5 -78t-88 -36q-32 0 -153 64l94 151q111 -79 164 -79q25 0 42.5 5t39.5 26t37 59l143 370l-141 -22l-363 901z" />
    <glyph glyph-name="s_y.liga" unicode="sy" horiz-adv-x="1697" 
d="M59 96l4 238l15 2l96 -211q50 -45 118.5 -79.5t123.5 -35.5q72 0 118 47.5t46 149.5q0 34 -22.5 65t-59 54.5t-83.5 48.5t-95.5 46.5t-95.5 49.5t-83.5 57.5t-59 70t-22.5 87.5q0 107 90.5 190t239.5 111q77 -3 262 -74l43 -211h-14l-125 146q-93 93 -223 96
q-73 -4 -108.5 -42.5t-35.5 -102.5q0 -38 30 -73t78.5 -64t106.5 -58.5t116 -61.5t106 -67t77.5 -81.5t28.5 -98.5q0 -262 -366 -324q-73 0 -173 46t-133 79zM688 952v11h393v-9l-98 -18l322 -784l-2 -33l2 4l251 795l-141 32v13h365v-13l-174 -35l-424 -1228
q-15 -58 -69.5 -110t-104.5 -78t-88 -36q-33 0 -154 64l94 151q111 -79 164 -79q25 0 42.5 5t39.5 26t37 59l143 370l-141 -22l-363 901z" />
    <glyph glyph-name="t_t.liga" unicode="tt" horiz-adv-x="1282" 
d="M1280 176l12 -12q-87 -70 -138.5 -108.5t-123.5 -82.5q-116 9 -174.5 69t-69.5 175l-8 674l-442 4l4 -637q-1 -76 31.5 -121t79.5 -45q50 0 90.5 16.5t113.5 67.5l13 -12q-87 -70 -138.5 -108.5t-123.5 -82.5q-116 9 -174.5 69t-69.5 175l-8 682h-7l-137 4v21l162 67
l137 228l25 -2l-8 -259h448l160 261l24 -2l-8 -259h330v-59l-78 -10l-241 6l4 -637q-1 -76 31 -121t79 -45q50 0 91 16.5t114 67.5z" />
    <glyph glyph-name=".notdef" horiz-adv-x="1024" 
d="M840 1536v-2048h-650v2048h650zM682 1399h-338v-68h133v-76h-135v-67h340v67h-135v76h135v68zM547 1135h-205v-213h340v69h-135v144zM477 1065v-74h-67v74h67zM682 866h-340v-67h135v-76h-135v-68h205v144h135v67zM682 743h-68v-135h-272v-69h340v204zM682 494h-205v-115
h70v47h67v-96h-204v164h-68v-232h340v232zM682 139h-340v-231h340v231zM614 72v-97h-204v97h204zM682 -139h-340v-68h143l-143 -96v-68h340v68h-209l143 96h66v68z" />
    <glyph glyph-name=".null" horiz-adv-x="0" 
 />
    <glyph glyph-name="nonmarkingreturn" horiz-adv-x="682" 
 />
    <glyph glyph-name="space" unicode=" " horiz-adv-x="491" 
 />
    <glyph glyph-name="exclam" unicode="!" horiz-adv-x="409" 
d="M176 340q0 219 -37 549t-37 532l140 37q24 0 50.5 -11.5t26.5 -27.5q0 -169 -24 -349t-48 -364.5t-24 -365.5h-47zM195 -18q-45 0 -76 31t-31 77q0 44 31.5 75.5t75.5 31.5t75 -31.5t31 -75.5q0 -46 -31 -77t-75 -31z" />
    <glyph glyph-name="quotedbl" unicode="&#x22;" horiz-adv-x="655" 
d="M305 1278l-125 -131q-37 0 -70.5 40t-33.5 89q0 11 115.5 158t146.5 180l16 -15q-3 -4 -20.5 -23.5t-26.5 -29.5t-25.5 -30t-26 -34.5t-20 -32t-15.5 -32.5t-5 -28q0 -111 90 -111zM551 1278l-125 -131q-37 0 -70.5 40t-33.5 89q0 11 115.5 158t146.5 180l16 -15
q-3 -4 -20.5 -23.5t-26.5 -29.5t-25.5 -30t-26 -34.5t-20 -32t-15.5 -32.5t-5 -28q0 -111 90 -111z" />
    <glyph glyph-name="numbersign" unicode="#" horiz-adv-x="1167" 
 />
    <glyph glyph-name="dollar" unicode="$" 
d="M453 633q28 -16 83.5 -47t86 -49t73 -47.5t65 -53t38.5 -55t16 -64.5q0 -274 -369 -342v-118h-8l-20 18v96q-78 4 -181 52.5t-135 82.5l31 254h14l103 -243q64 -82 168 -101l4 455q-152 85 -203 125q-107 83 -108 170q0 107 81.5 180.5t231.5 106.5v2l4 96h27v-92
q194 0 280 -66l45 -237h-16l-117 153q-17 29 -72.5 58.5t-119.5 42.5zM233 887q0 -122 189 -236l2 363q-10 2 -31 2q-82 -5 -121 -35t-39 -94zM483 8q78 0 129.5 52.5t51.5 162.5q0 64 -55.5 117.5t-157.5 112.5l-2 -443q5 0 16.5 -1t17.5 -1z" />
    <glyph glyph-name="percent" unicode="%" horiz-adv-x="1454" 
d="M975 1536h125l-658 -1622h-116zM598 1188q0 -55 -24 -103.5t-58.5 -80t-75 -55.5t-70.5 -35t-48 -13q-122 0 -184 70.5t-62 195.5q0 57 33.5 111.5t79.5 90t91 57.5t72 24q120 -1 183 -70t63 -192zM358 936q37 0 64 21.5t39.5 56t18 67t5.5 64.5q0 110 -53.5 186
t-118.5 76q-38 0 -64 -17t-39.5 -47.5t-18.5 -64.5t-5 -78q0 -115 54.5 -189.5t117.5 -74.5zM1376 266q0 -68 -35.5 -125t-85 -89.5t-90.5 -50.5t-65 -21q-122 0 -184 70.5t-62 195.5q0 46 22 91t55.5 77.5t72 58.5t72 40t54.5 15q120 -1 183 -70t63 -192zM1137 14
q37 0 64 21.5t39.5 56t18 67t5.5 64.5q0 110 -53.5 186t-118.5 76q-38 0 -64 -16.5t-39.5 -47.5t-18.5 -64.5t-5 -77.5q0 -115 54.5 -190t117.5 -75z" />
    <glyph glyph-name="ampersand" unicode="&#x26;" 
d="M2 418q0 70 48 149t105.5 135t127.5 109q-127 254 -127 383l284 258q16 8 76 8q92 0 187 -22t122 -64l-120 -127l-7 8q0 46 -73.5 94t-157.5 48q-21 0 -61 -8q-68 -72 -68 -111q0 -93 81.5 -274t188.5 -358.5t221 -336.5q9 24 110.5 249t147.5 345l-225 35v12h500v-12
l-219 -37l-279 -639q142 -196 178 -196q12 0 46 27.5t77 68.5l43 41l19 -21l-201 -182h-184q-49 49 -121 135q-130 -106 -229 -162q-221 0 -355.5 117t-134.5 328zM162 504q0 -81 29 -151t74.5 -116t101 -79t107.5 -47.5t95 -14.5q60 0 133 62q-245 311 -407 630
q-65 -63 -99 -128.5t-34 -155.5z" />
    <glyph glyph-name="quotesingle" unicode="'" horiz-adv-x="247" 
d="M-23 1360l125 131q37 0 71 -40t34 -89q0 -12 -97.5 -161t-123.5 -177l-17 14q36 41 67.5 104.5t31.5 106.5q0 111 -91 111z" />
    <glyph glyph-name="asterisk" unicode="*" horiz-adv-x="1150" 
d="M1032 760q10 -6 8 -24.5t-8.5 -36t-13.5 -29.5q-10 -20 -31 -35.5t-35 -7.5q-66 39 -168.5 139.5t-199.5 159.5q3 -109 39 -247.5t36 -217.5q0 -16 -23 -25.5t-46 -9.5q-25 0 -55.5 9t-30.5 24q0 80 26 218.5t29 244.5q-59 -37 -111 -80.5t-83 -76.5t-75.5 -71.5
t-90.5 -66.5q-14 -8 -35 7.5t-31 35.5q-7 12 -13.5 29.5t-8.5 36t8 24.5q69 42 203 87.5t227 98.5q-93 48 -226.5 85t-201.5 75q-12 10 -10 35t12 45q12 19 37 41.5t37 15.5q71 -39 174 -129.5t188 -142.5q-3 103 -29 237.5t-26 214.5q0 15 30.5 25t55.5 10q22 0 45.5 -10.5
t23.5 -26.5q0 -79 -35.5 -214.5t-39.5 -239.5q90 54 194.5 145.5t175.5 130.5q12 7 37 -15.5t37 -41.5q10 -20 12 -45t-10 -35q-68 -38 -201.5 -75t-226.5 -85q93 -53 227 -98.5t203 -87.5z" />
    <glyph glyph-name="plus" unicode="+" 
d="M1059 647v-102h-449v-447h-102v447h-447v104h447v447h104v-449h447z" />
    <glyph glyph-name="comma" unicode="," horiz-adv-x="253" 
d="M20 70l125 131q37 0 71 -40t34 -89q0 -11 -106 -148.5t-136 -169.5l-10 13q31 36 50 59.5t41 63.5t22 69q0 111 -91 111z" />
    <glyph glyph-name="hyphen" unicode="-" horiz-adv-x="669" 
d="M61 649l547 -2v-102h-547v104z" />
    <glyph glyph-name="period" unicode="." horiz-adv-x="430" 
d="M168 -18q-43 0 -74 31t-31 75q0 43 31 74t74 31q44 0 74 -31t30 -74q0 -44 -30 -75t-74 -31z" />
    <glyph glyph-name="slash" unicode="/" horiz-adv-x="1056" 
d="M729 1536h125l-535 -1622h-116z" />
    <glyph glyph-name="zero" unicode="0" horiz-adv-x="1009" 
d="M987 500q0 -85 -31 -162t-81.5 -132t-109 -99.5t-118 -72.5t-103.5 -43t-71 -18q-221 0 -335.5 131.5t-114.5 362.5q0 84 41 166.5t102.5 142.5t132 108.5t131.5 74t100 28.5q223 -4 340 -131.5t117 -355.5zM543 41q70 0 125.5 40t87 100.5t47.5 123t16 117.5
q0 102 -34.5 194.5t-87.5 155t-116 99t-120 36.5q-71 0 -125 -31.5t-85 -86.5t-46 -121.5t-15 -143.5q0 -87 23.5 -166t61.5 -135.5t84.5 -98.5t94 -62.5t89.5 -20.5z" />
    <glyph glyph-name="one" unicode="1" horiz-adv-x="692" 
d="M8 0v10l240 23l2 862l-238 -100q-6 9 -6 20l402 189l24 -3l-2 -968l256 -23v-10h-678z" />
    <glyph glyph-name="two" unicode="2" horiz-adv-x="909" 
d="M866 238l23 -5l-152 -233h-710v12l84 68q56 47 101.5 88.5t106.5 109.5t101.5 132t70 146t29.5 161q0 80 -57 124t-154 44q-124 0 -268 -113l-18 10q55 51 205.5 127t191.5 78q129 0 221 -72.5t92 -162.5q0 -59 -33 -126.5t-80.5 -126.5t-124.5 -132t-139.5 -125.5
t-151.5 -124.5q-9 -7 -14 -11q18 6 45 16t42.5 15.5t19.5 5.5l489 -2q6 0 20 16.5t34 44.5t26 36z" />
    <glyph glyph-name="three" unicode="3" horiz-adv-x="878" 
d="M471 500q107 0 192.5 -40t139 -125.5t53.5 -205.5q0 -100 -40 -191t-100 -153.5t-130.5 -110t-132 -70t-103.5 -22.5q-268 0 -268 287q107 88 137 137l23 -2q0 -75 10 -138t30.5 -115.5t56.5 -82.5t85 -30q42 4 79 19t71 46.5t58.5 76.5t39 112.5t14.5 150.5
q0 77 -22 136t-57 93.5t-84 55.5t-97.5 27.5t-103.5 4.5l-54 -69l-45 4l418 526l-426 23l-96 -105l-21 4l203 256q133 -28 256.5 -32.5t296.5 2.5l-166 -140l-336 -430q119 90 119 101z" />
    <glyph glyph-name="four" unicode="4" horiz-adv-x="1089" 
d="M1067 37v-39l-242 -4v-412l-4 -12l-178 -70v490l-610 -10l-10 -5q0 1 1 2.5t1 2.5h-2l4 2q68 112 175 261.5t188 258t161 244.5t119 251q24 -2 79 -7.5t82 -7t67.5 3t72.5 18.5l4 -7l-768 -940l-86 -39l522 11v2l10 448l148 33l24 -4v-475z" />
    <glyph glyph-name="five" unicode="5" horiz-adv-x="940" 
d="M23 -131q0 -150 68.5 -218.5t240.5 -68.5q31 0 88 20.5t129.5 65t136.5 104t108 149t44 188.5q0 71 -24 135.5t-63.5 111t-88 80.5t-99 51t-96.5 17q0 -5 -39.5 -32.5t-100 -64t-110.5 -61.5l92 483q67 -11 157.5 -13.5t162 0t157.5 -0.5l123 164l-4 8q-14 -1 -83 -4.5
t-85.5 -4.5t-74 -3t-80.5 -1.5t-71 1.5t-79 4t-72 8t-79 12l-107 -688l35 -6l78 39q180 4 280.5 -89t100.5 -253q0 -82 -18.5 -146t-46 -101.5t-65 -63t-68.5 -35.5t-64 -14q-98 0 -161 107t-63 255l-22 2q-30 -49 -137 -137z" />
    <glyph glyph-name="six" unicode="6" horiz-adv-x="1005" 
d="M23 473q1 -238 103.5 -367.5t276.5 -132.5q23 2 57 12t81.5 32.5t95 54t94.5 80t83.5 106t59.5 137t23 168.5q-2 135 -90.5 239.5t-204.5 104.5q1 -4 -68 -37.5t-158 -89.5t-128 -110l18 -19q33 44 63.5 71t60 37.5t46 12.5t43.5 2h8q40 0 77 -18.5t70 -58t53 -113
t20 -172.5q0 -154 -58.5 -257.5t-159.5 -103.5q-74 0 -136 68.5t-95.5 177.5t-34.5 231q1 117 47 246.5t124 245t175 213t206.5 161t209.5 79.5l-10 28q-142 -38 -279.5 -107t-258.5 -167t-213.5 -213t-146 -255.5t-54.5 -285.5z" />
    <glyph glyph-name="seven" unicode="7" horiz-adv-x="923" 
d="M23 743l20 -4l115 88q201 -17 335.5 -21.5t335.5 1.5q-69 -157 -208.5 -413t-299.5 -509t-253 -348l-7 -20l297 -4l586 1456q-168 -8 -371.5 -2.5t-347.5 32.5z" />
    <glyph glyph-name="eight" unicode="8" horiz-adv-x="937" 
d="M571 807q18 -13 56.5 -39.5t60 -42t56 -43t55 -48t45.5 -51t38.5 -58t23 -62.5t9.5 -72q0 -78 -40 -149t-97.5 -118t-120 -82.5t-109 -52t-63.5 -16.5q-82 0 -161 19.5t-148 58.5t-111 107t-42 155q0 64 21.5 122.5t49.5 97t73.5 77.5t75 57.5t72.5 43.5
q-58 40 -100.5 76.5t-81.5 82.5t-59.5 98.5t-20.5 110.5q0 62 38.5 123.5t94 106t116 79.5t106.5 52.5t63 17.5q65 0 124 -11t114 -36.5t94.5 -63.5t63.5 -95t24 -128q0 -34 -20 -70.5t-45.5 -64t-68 -60.5t-69.5 -50t-69 -42.5t-48 -29.5zM453 1423q-81 0 -135 -88.5
t-54 -197.5q0 -55 30 -108.5t72.5 -90.5t85.5 -65t73 -42t30 -12q143 80 143 260q0 184 -60 264t-185 80zM496 0q88 0 156.5 97t68.5 225q0 36 -17 72t-39.5 63t-67 62t-76 56.5t-90.5 59.5t-89 59q-56 -54 -88.5 -131t-32.5 -205q0 -169 79 -263.5t196 -94.5z" />
    <glyph glyph-name="nine" unicode="9" horiz-adv-x="983" 
d="M922 518q0 118 -32 208.5t-88.5 146t-129.5 83t-160 27.5q-35 -4 -84.5 -21t-117.5 -60t-124 -103.5t-95.5 -162t-39.5 -224.5q0 -133 91 -235.5t208 -102.5q0 1 26.5 13.5t68.5 35t88 50.5t92.5 66.5t74.5 77.5l-20 13q-54 -76 -112.5 -108t-104.5 -32q-40 0 -77.5 21
t-71 63.5t-54 118t-20.5 174.5q0 155 44 240.5t144 95.5q76 0 144 -59.5t109.5 -162.5t41.5 -222q0 -148 -56.5 -310.5t-147.5 -297t-213.5 -231.5t-246.5 -118l11 -28q176 51 331 151t271 234t183 305.5t67 353.5z" />
    <glyph glyph-name="colon" unicode=":" horiz-adv-x="552" 
d="M279 752q-43 0 -74 31t-31 75q0 43 31 74t74 31q44 0 74 -31t30 -74q0 -44 -30 -75t-74 -31zM274 -18q-43 0 -73.5 31t-30.5 75q0 43 30.5 74t73.5 31q44 0 74.5 -31t30.5 -74q0 -44 -30.5 -75t-74.5 -31z" />
    <glyph glyph-name="semicolon" unicode=";" horiz-adv-x="552" 
d="M279 752q-43 0 -74 31t-31 75q0 43 31 74t74 31q44 0 74 -31t30 -74q0 -44 -30 -75t-74 -31zM186 70l125 131q37 0 71 -40t34 -89q0 -11 -106 -148.5t-136 -169.5l-16 15q41 47 79.5 104.5t38.5 85.5q0 111 -90 111z" />
    <glyph glyph-name="less" unicode="&#x3c;" horiz-adv-x="780" 
d="M758 901l-625 -297l625 -305l-96 -63l-633 301h-4l-2 127h6l624 305z" />
    <glyph glyph-name="equal" unicode="=" horiz-adv-x="1181" 
d="M102 752l998 -2v-103h-998v105zM102 424l998 -2v-103h-998v105z" />
    <glyph glyph-name="greater" unicode="&#x3e;" horiz-adv-x="780" 
d="M758 664l-2 -127h-4l-633 -301l-96 63l624 305l-624 297l104 68l625 -305h6z" />
    <glyph glyph-name="question" unicode="?" horiz-adv-x="770" 
d="M23 1204l26 -4q45 57 127.5 102.5t157.5 45.5q81 0 135.5 -57.5t54.5 -160.5q0 -73 -32 -146t-78 -126.5t-95.5 -96.5t-86.5 -65t-48 -22q0 -58 20.5 -125.5t41.5 -108.5t28 -41l146 117l-4 4q-29 0 -59.5 59t-30.5 117q0 27 31.5 57.5t78 58t101.5 65.5t101.5 78t78 98
t31.5 123q0 58 -35 111.5t-88.5 89t-115.5 56.5t-118 21q-37 0 -163 -77t-205 -173zM231 90q0 44 31.5 75.5t75.5 31.5t75 -31.5t31 -75.5q0 -46 -31 -77t-75 -31t-75.5 31t-31.5 77z" />
    <glyph glyph-name="at" unicode="@" 
 />
    <glyph glyph-name="A" unicode="A" horiz-adv-x="1351" 
d="M1278 37l156 -25v-12h-516v12l137 21l-146 471h-549l-161 -461l180 -31v-12h-410v12l168 33l481 1348l-153 28v13h225l137 10l449 -1407h2zM375 543h522l-240 774l-4 20v2z" />
    <glyph glyph-name="B" unicode="B" horiz-adv-x="1206" 
d="M1165 397q0 -65 -13.5 -119t-34 -92.5t-55.5 -69t-65.5 -50t-77 -33t-76.5 -20t-78 -10t-67.5 -3.5h-57.5h-6h-5.5h-5.5h-603v12l175 41v1327l-158 41v13l563 2q91 1 162.5 -7.5t133 -29t102 -53t63 -83t22.5 -116.5q2 -293 -309 -381q171 -32 281 -131t110 -238z
M399 1380v-594q17 0 23 -2l137 -4h10q67 0 125.5 20t106 60t75 108t27.5 156q0 55 -22.5 104.5t-65 88.5t-111.5 62t-155 24q-129 -5 -150 -23zM662 43q156 0 234.5 80.5t78.5 259.5q0 62 -30.5 125.5t-82.5 114t-129.5 83t-163.5 33.5q-121 0 -170 -8v-596
q36 -43 123 -67.5t140 -24.5z" />
    <glyph glyph-name="C" unicode="C" horiz-adv-x="1300" 
d="M41 666q0 142 59.5 278.5t159 241t233 177t277.5 95.5q244 0 381 -49l63 -389l-26 -6q-30 72 -77.5 140.5t-108 126.5t-136.5 93t-153 35q-89 0 -178.5 -56t-155.5 -144t-107 -199t-41 -217q0 -325 150.5 -498.5t443.5 -173.5q96 0 230.5 89t179.5 155l25 -37
q-33 -52 -213 -172.5t-306 -182.5q-153 1 -281.5 48.5t-221.5 135.5t-145 218.5t-52 290.5z" />
    <glyph glyph-name="D" unicode="D" horiz-adv-x="1566" 
d="M61 0v12l199 41v1327l-178 41v13l715 2q338 12 533.5 -157t195.5 -495q0 -108 -34 -208t-89.5 -176.5t-126 -143t-143.5 -112t-143 -79t-122.5 -50t-83.5 -17.5zM465 143q63 -59 399 -59q222 0 326 172.5t104 505.5q0 339 -163.5 490t-499.5 151q-112 0 -166 -12v-1248z
" />
    <glyph glyph-name="E" unicode="E" horiz-adv-x="1232" 
d="M1145 383l16 -4l-45 -379h-1096v12l158 41v1336l-123 18v27h1010l51 6l33 -383h-12q-37 74 -106.5 186t-117.5 152h-530v-631h412l88 199h12v-435h-12l-88 197h-412v-686h520q48 31 127.5 151.5t114.5 192.5z" />
    <glyph glyph-name="F" unicode="F" horiz-adv-x="1212" 
d="M1157 1440l33 -383h-12q-37 74 -106.5 186t-117.5 152h-530v-697h412l88 199h12v-434h-12l-88 196h-412v-620l240 -27v-12h-603v12l158 27v1345l-143 23v27h1030z" />
    <glyph glyph-name="G" unicode="G" horiz-adv-x="1439" 
d="M1409 635v-12l-149 -56l4 -350q-21 -33 -112 -75t-222.5 -92.5t-184.5 -76.5q-151 1 -281.5 56t-223.5 151.5t-146 234.5t-53 298q0 142 60 271.5t161 225t233.5 160.5t278.5 88q113 0 248.5 -19t204.5 -50l45 -369l-15 -2q-72 174 -218.5 282.5t-321.5 108.5
q-90 0 -178 -50.5t-153 -131.5t-105.5 -187t-40.5 -211q0 -158 45.5 -296.5t123.5 -236t187 -154t233 -56.5q109 0 244 49v426l-201 62v12h537z" />
    <glyph glyph-name="H" unicode="H" horiz-adv-x="1449" 
d="M1389 1421l-138 -20v-1368l135 -21v-12h-475v12l136 21l8 686h-652v-686l138 -21v-12h-480v12l138 21v1368l-138 20v13h463v-13l-121 -20v-643h652l8 643l-133 20v13h459v-13z" />
    <glyph glyph-name="I" unicode="I" horiz-adv-x="602" 
d="M403 33l138 -21v-12h-480v12l138 21v1368l-138 20v13h463v-13l-121 -20v-1368z" />
    <glyph glyph-name="J" unicode="J" horiz-adv-x="739" 
d="M733 1434v-19l-217 -39v-1401q0 -83 -71 -211t-167.5 -225t-162.5 -100q-69 4 -134 27.5t-104 56.5l125 125q116 -90 186 -90q104 0 113 82l10 1742l-205 33v19l324 -2z" />
    <glyph glyph-name="K" unicode="K" horiz-adv-x="1320" 
d="M1212 33l136 -23v-10h-353l-14 33l-451 715l-149 -177l10 -538l125 -23v-10h-455v10l125 23l13 1364l-138 24v13l301 -2l177 2v-19l-136 -16l-47 -778h13l645 763l-170 37v13h389v-13l-164 -41l-399 -471l538 -876h4z" />
    <glyph glyph-name="L" unicode="L" horiz-adv-x="1196" 
d="M1165 383l17 -4l-31 -379h-1047v16l162 25l13 1350l-179 30v13l344 -2l215 2v-19l-174 -22l-14 -1362l444 -2q28 -1 84 75.5t98 151t68 127.5z" />
    <glyph glyph-name="M" unicode="M" horiz-adv-x="1884" 
d="M1673 37l160 -25v-12h-520v12l160 25l-19 1274l-547 -1315h-35l-571 1364l2 -1311l207 -37v-12h-459v12l189 35l8 1333l-180 27v27h241l193 6l477 -1127v-6l473 1127v4l94 -4h273v-27l-164 -25z" />
    <glyph glyph-name="N" unicode="N" horiz-adv-x="1454" 
d="M1434 1434v-13l-207 -35l-2 -1386h-103l-852 1354l2 -1305l207 -37v-12h-459v12l189 35l8 1339l-139 21v27h205l192 6l694 -1096l-6 1042l-229 35v13h500z" />
    <glyph glyph-name="O" unicode="O" horiz-adv-x="1478" 
d="M1438 743q0 -108 -34.5 -207.5t-91 -174.5t-128 -140.5t-145.5 -110t-145 -77t-124 -48t-84 -16.5q-325 0 -485 190.5t-160 534.5q0 98 33 191.5t87 167t122.5 139.5t140.5 113t140 82t121 53t85 20q316 -7 492 -196t176 -521zM760 59q105 0 191.5 45t143 122.5t87 181
t30.5 221.5q0 360 -141 545.5t-377 185.5q-139 0 -243 -81t-155.5 -211.5t-51.5 -289.5q0 -133 34.5 -252t89.5 -202t123.5 -144.5t137.5 -91t131 -29.5z" />
    <glyph glyph-name="P" unicode="P" horiz-adv-x="1208" 
d="M61 0v12l199 41v1327l-178 41v13l625 2q224 5 351.5 -81t127.5 -257q0 -67 -16 -125t-41.5 -100t-64.5 -77.5t-76 -58.5t-84 -41t-81.5 -27.5t-76 -17t-59.5 -9t-40 -3.5l-182 -2v-584l227 -41v-12h-631zM465 717q118 -33 227 -33q152 0 229.5 94t77.5 277
q0 96 -35.5 171.5t-114.5 123.5t-194 49q-171 -10 -190 -27v-655z" />
    <glyph glyph-name="Q" unicode="Q" horiz-adv-x="1449" 
d="M1548 -131l15 -21l-293 -200l-19 8q-209 87 -343.5 135t-282.5 84l-140 -72q-33 -6 -59 17l137 57l176 105q-44 -13 -63 -13q-325 0 -485 190.5t-160 534.5q0 98 33 191.5t87 167t122.5 139.5t140.5 113t140 82t121 53t85 20q316 -7 491.5 -196t175.5 -521
q0 -91 -25 -177t-66.5 -153.5t-98.5 -129t-116.5 -107t-125 -83.5t-120 -62.5t-105.5 -40.5q88 -1 199 -37.5t193 -79t149 -71t84 -17.5zM238 778q0 -133 34 -251.5t88.5 -202t122.5 -145t136.5 -91t130.5 -29.5q139 0 242.5 78t154.5 205.5t51 286.5q0 360 -139 545.5
t-375 185.5q-139 0 -242 -81t-153.5 -211.5t-50.5 -289.5z" />
    <glyph glyph-name="R" unicode="R" horiz-adv-x="1388" 
d="M61 0v12l199 41v1327l-178 41v13l625 2q226 5 354.5 -70.5t128.5 -230.5q1 -90 -30.5 -165t-79.5 -124t-111 -85.5t-120 -54.5t-112 -26l193 -41q2 0 32.5 -62t78 -150t99.5 -176t105.5 -150t87.5 -62l125 76l12 -19l-141 -98l-268 2q-56 83 -152 255.5t-164.5 286.5
t-93.5 120l-186 -3v-606l227 -41v-12h-631zM465 727q94 -16 227 -16q152 0 232 98.5t80 282.5q0 63 -21.5 118.5t-63.5 98.5t-109.5 68t-154.5 26q-171 -10 -190 -27v-649z" />
    <glyph glyph-name="S" unicode="S" horiz-adv-x="1163" 
d="M94 156l-2 348h23l161 -334q48 -62 140 -104t200 -43q50 0 93.5 16.5t78.5 50t55.5 92t20.5 135.5q0 57 -42 112t-109 100.5t-148 91.5t-162 94t-148 98.5t-109 114.5t-42 133q0 154 124.5 256.5t349.5 142.5q51 0 188 -33.5t197 -64.5l59 -315h-23l-157 210
q-31 50 -138.5 99.5t-209.5 50.5q-73 0 -146.5 -57.5t-73.5 -141.5q0 -68 44 -131t114.5 -113t156 -98t170.5 -95t155.5 -95t114.5 -107.5t44 -122.5q0 -205 -131 -319.5t-381 -155.5q-107 0 -263.5 69t-203.5 116z" />
    <glyph glyph-name="T" unicode="T" horiz-adv-x="1204" 
d="M965 1395h-263v-1321l240 -62v-12h-684v12l240 62v1321h-258q-51 -54 -117.5 -163t-99.5 -177h-13l47 387h27q54 -8 121 -8h794q67 0 121 8h27l47 -387h-12q-33 68 -99.5 177t-117.5 163z" />
    <glyph glyph-name="U" unicode="U" horiz-adv-x="1359" 
d="M102 1423v11h447v-15l-121 -14v-907q0 -195 87.5 -319t217.5 -124q180 0 301 137t121 353v835l-170 41v13h348v-13l-121 -41v-835q0 -133 -46 -243t-123 -180.5t-172.5 -108.5t-198.5 -38q-99 0 -178 29.5t-141 91t-96 166.5t-34 248v895z" />
    <glyph glyph-name="V" unicode="V" horiz-adv-x="1304" 
d="M1376 1434v-13l-164 -41l-438 -1380h-65l-156 -14l-447 1405l-147 30v13h516v-13l-141 -30l405 -1287h6l404 1278l-162 39v13h389z" />
    <glyph glyph-name="W" unicode="W" horiz-adv-x="2179" 
d="M2251 1434v-13l-164 -41l-418 -1380h-65l-156 -14l-352 1110l-348 -1096h-66l-156 -14l-428 1407l-139 28v13h516v-13l-147 -32l385 -1285h6l344 1090l-76 240h227l420 -1330h4l385 1278l-161 39v13h389z" />
    <glyph glyph-name="X" unicode="X" horiz-adv-x="1300" 
d="M1194 33l117 -25v-8h-439v8l105 23l-361 626l-350 -616h6l140 -33v-12h-373v12l158 31l393 666l-400 696l-114 24v9h438v-9l-108 -22l294 -514l328 506l-123 30v13h336v-13l-158 -30l-360 -547z" />
    <glyph glyph-name="Y" unicode="Y" horiz-adv-x="1060" 
d="M1184 1434v-13l-160 -35l-354 -724v-629l137 -21v-12h-479v12l137 21v618l-377 750l-129 24v9h461v-9l-119 -24l340 -684l2 -17l334 689l-129 32v13h336z" />
    <glyph glyph-name="Z" unicode="Z" horiz-adv-x="1163" 
d="M842 31l194 389l19 -4l-25 -416h-954l-25 29l823 1372l-550 2l-191 -348l-18 4l8 362v13h973l16 -25l-797 -1378h527z" />
    <glyph glyph-name="backslash" unicode="\" horiz-adv-x="1167" 
d="M328 1536l526 -1622h-117l-534 1622h125z" />
    <glyph glyph-name="asciicircum" unicode="^" horiz-adv-x="1167" 
 />
    <glyph glyph-name="underscore" unicode="_" horiz-adv-x="913" 
d="M61 -45h791v-70h-791v70z" />
    <glyph glyph-name="grave" unicode="`" 
d="M322 1479q0 -17 88.5 -168t126.5 -199l-58 -4l-352 369v2l53 20z" />
    <glyph glyph-name="a" unicode="a" horiz-adv-x="1021" 
d="M20 455q0 91 38.5 173.5t94.5 139.5t127.5 104.5t127 73.5t104.5 41q251 0 358 -94l-2 -860l138 -23v-10h-306l5 256h-11q-80 -98 -164 -178.5t-143 -104.5q-166 0 -266.5 123.5t-100.5 358.5zM195 528q0 -179 79 -293t175 -114q103 0 233 147l4 510q-99 123 -221 123
q-143 0 -206.5 -89.5t-63.5 -283.5z" />
    <glyph glyph-name="b" unicode="b" horiz-adv-x="1038" 
d="M12 1505v11l336 22l-26 -864h8q210 272 313 313q168 0 270.5 -119t102.5 -352q0 -76 -27 -147.5t-72 -126.5t-98 -101.5t-111.5 -80.5t-105 -55.5t-84.5 -33.5q-133 0 -243.5 36.5t-159.5 78.5l28 23l7 2v1370zM330 219q0 -57 81.5 -107.5t153.5 -50.5q144 0 210.5 89.5
t66.5 281.5q0 178 -83.5 296t-180.5 118q-54 0 -114.5 -54t-133.5 -145v-428z" />
    <glyph glyph-name="c" unicode="c" horiz-adv-x="839" 
d="M23 446q0 198 142 354t343 187q125 0 216.5 -71.5t94.5 -182.5q-39 -17 -76 -21t-88 1q-12 17 -47.5 87t-69 112t-69.5 42q-80 0 -139.5 -61.5t-87 -152.5t-27.5 -193q0 -127 39.5 -227t120 -160t190.5 -60q44 0 93.5 34.5t78 68t51.5 67.5l29 -16q-33 -49 -135.5 -148
t-173.5 -133q-222 2 -353.5 127.5t-131.5 345.5z" />
    <glyph glyph-name="d" unicode="d" horiz-adv-x="1069" 
d="M23 455q0 91 36.5 175.5t93 145t125.5 108t133 72.5t115 31q53 0 116 -16t91 -33v551l-158 14v13l318 20l25 -2v-899l-3 -590l148 -33v-12h-315l6 305h-9q-86 -112 -174 -203.5t-149 -115.5q-80 0 -152 32t-127 90.5t-87.5 148.5t-32.5 198zM197 539q0 -81 29.5 -160.5
t74 -134.5t96.5 -89t97 -34q27 0 57.5 16.5t63 48.5t57 60.5t57.5 70.5l6 281q-3 132 -70.5 219.5t-179.5 87.5q-157 0 -222.5 -87t-65.5 -279z" />
    <glyph glyph-name="e" unicode="e" horiz-adv-x="882" 
d="M829 236l23 -21q-127 -127 -317 -221q-44 -12 -105 -12q-187 0 -297 134.5t-110 348.5q0 198 119.5 338.5t320.5 183.5q108 3 180.5 -22t116 -83t62 -140t20.5 -203l-654 -4q3 -188 102.5 -309.5t274.5 -121.5q79 0 148 39.5t116 92.5zM416 930q-55 -2 -95.5 -20
t-66 -48.5t-40.5 -79t-20.5 -102.5t-5.5 -127l457 20q8 20 8 31q0 156 -67.5 242.5t-169.5 83.5z" />
    <glyph glyph-name="f" unicode="f" horiz-adv-x="641" 
d="M51 0v10l137 23v882h-137v29l137 8v97q0 74 74.5 196.5t171.5 217.5t154 98q59 -5 129.5 -29t107.5 -55l-125 -125q-44 34 -64 48t-54 28t-68 14q-82 0 -133 -88l-4 -404h295v-22l-78 -10l-217 6l-6 -891l135 -23v-10h-455z" />
    <glyph glyph-name="g" unicode="g" horiz-adv-x="997" 
d="M23 -162q41 33 130.5 88.5t110.5 69.5h-12q-36 0 -79.5 51.5t-43.5 99.5q15 26 36 51t54.5 59t42.5 44q-106 39 -166.5 122t-60.5 187q0 59 32 118t81.5 104.5t107 81t111.5 54.5t92 19q116 0 205 -39q67 -20 143 -20q115 0 115 59l108 -31q-20 -91 -65 -94
q-19 0 -99.5 19.5t-91.5 19.5q-21 0 -29 -2q117 -93 117 -242q0 -61 -50 -132.5t-118 -126t-139.5 -91.5t-114.5 -37q-80 0 -157 23q-31 -25 -47 -48t-17 -59q0 -39 49 -43q31 -3 250 -12q88 -3 154 -11.5t127 -27t99.5 -48t61 -75.5t21.5 -108q-1 -68 -63 -132t-143.5 -104
t-154 -64t-104.5 -24q-27 -2 -80 -2q-105 4 -179.5 19.5t-119.5 40t-71 63.5t-34.5 80t-8.5 100zM221 649q0 -159 57 -251.5t166 -92.5q103 0 167.5 87.5t64.5 228.5q0 165 -61 248t-171 83q-105 0 -164 -78t-59 -225zM213 -190q0 -99 70.5 -161t171.5 -65
q104 -3 178.5 13.5t115.5 48.5t59.5 71.5t18.5 89.5q0 41 -14 71.5t-46 51t-72 33.5t-103 20t-126 9.5t-155 3.5q-98 -88 -98 -186z" />
    <glyph glyph-name="h" unicode="h" horiz-adv-x="1124" 
d="M16 1526v12h291l25 -4l-19 -778h9q62 76 176 152.5t149 78.5q170 -9 245 -102.5t75 -274.5v-577l137 -23v-10h-459v10l139 23v545q0 118 -43 193t-123 75q-192 0 -280 -105v-708l135 -23v-10h-455v10l138 23v1458z" />
    <glyph glyph-name="i" unicode="i" horiz-adv-x="487" 
d="M250 1284q-44 0 -75.5 31.5t-31.5 77.5q0 44 31.5 75t75.5 31t75 -31t31 -75q0 -46 -31 -77.5t-75 -31.5zM16 0v10l138 23v895l-117 22v13h274l25 -5v-925l135 -23v-10h-455z" />
    <glyph glyph-name="j" unicode="j" horiz-adv-x="360" 
d="M223 1288q-44 0 -75 31.5t-31 77.5q0 44 31 75t75 31t75.5 -31t31.5 -75q0 -46 -31.5 -77.5t-75.5 -31.5zM-307 -477l125 125q44 -34 63.5 -48t49 -28t53.5 -14q47 0 78.5 50.5t33.5 106.5l10 1215l-135 20v13h287l25 -5v-983q0 -84 -64 -211t-154 -224.5t-155 -100.5
q-56 5 -117.5 28.5t-99.5 55.5z" />
    <glyph glyph-name="k" unicode="k" horiz-adv-x="1032" 
d="M16 0v10l138 23v1456l-138 35v12h303l25 -2l-33 -1032h13l438 416h-2l-133 32v13h366v-13l-170 -35l-321 -292l35 28l405 -618l135 -23v-10h-479v10l137 23h-4l-317 512l-78 -72v-440l135 -23v-10h-455z" />
    <glyph glyph-name="l" unicode="l" horiz-adv-x="483" 
d="M16 0v10l138 23v1456l-138 14v13l295 20l25 -2v-1501l135 -23v-10h-455z" />
    <glyph glyph-name="m" unicode="m" horiz-adv-x="1708" 
d="M1534 33l154 -23v-10h-476v10l140 23v545q0 268 -166 268q-168 0 -256 -103q12 -61 12 -133v-577l154 -23v-10h-475v10l139 23v545q0 268 -166 268q-149 0 -256 -105v-708l135 -23v-10h-455v10l138 23v882l-140 35v13h291l25 -5l-19 -202h9q85 85 178.5 157.5t122.5 73.5
q247 -11 301 -217q66 75 163 145t127 72q170 -9 245 -102.5t75 -274.5v-577z" />
    <glyph glyph-name="n" unicode="n" horiz-adv-x="1116" 
d="M16 950v13h291l25 -5l-19 -202h9q81 81 184 155t133 76q170 -9 244.5 -102.5t74.5 -274.5v-577l138 -23v-10h-459v10l139 23v545q0 268 -166 268q-163 0 -272 -105v-708l139 -23v-10h-459v10l138 23v882z" />
    <glyph glyph-name="o" unicode="o" horiz-adv-x="1009" 
d="M987 500q0 -85 -31 -162t-81.5 -132t-109 -99.5t-118 -72.5t-103.5 -43t-71 -18q-221 0 -335.5 131.5t-114.5 362.5q0 84 41 166.5t102.5 142.5t132 108.5t131.5 74t100 28.5q223 -4 340 -131.5t117 -355.5zM543 41q70 0 122.5 39.5t80 101.5t40.5 123t13 117
q0 102 -31.5 194.5t-80.5 155t-109 99t-117 36.5q-71 0 -121.5 -31t-77.5 -87.5t-39 -121t-12 -143.5q0 -108 32.5 -202.5t82.5 -154t107 -93t110 -33.5z" />
    <glyph glyph-name="p" unicode="p" horiz-adv-x="1099" 
d="M16 -512v14l170 39v797l2 590l-137 24v11h318l-25 -312h6q230 296 332 336q168 0 270.5 -119t102.5 -352q0 -76 -27 -147.5t-72 -126.5t-98 -101.5t-111.5 -80.5t-105 -55.5t-84.5 -33.5q-104 0 -188 23v-455l159 -37l2 -14h-514zM369 223q0 -52 82.5 -107t152.5 -55
q144 0 210.5 89.5t66.5 281.5q0 178 -84 296t-181 118q-54 0 -114 -53.5t-133 -145.5v-424z" />
    <glyph glyph-name="q" unicode="q" horiz-adv-x="1003" 
d="M51 455q0 77 26 147.5t68.5 124.5t96 99t110.5 74.5t108.5 47.5t94.5 23q123 0 223 -41l105 39h20l2 -631v-797l170 -39v-14h-514l2 14l160 37l22 729h-6q-182 -241 -288 -282q-80 0 -152.5 32t-127.5 90.5t-87.5 148.5t-32.5 198zM225 539q0 -81 29.5 -159.5t74 -133
t96.5 -88t97 -33.5q83 0 199 145l2 430q0 74 -64 139.5t-145 65.5q-154 0 -221.5 -85.5t-67.5 -280.5z" />
    <glyph glyph-name="r" unicode="r" horiz-adv-x="720" 
d="M16 0v10l138 23v893l-99 24v13h250l25 -5l-19 -202h8q62 78 139.5 144.5t110.5 76.5q114 -5 189 -80l-123 -152q-40 45 -94 66q-115 41 -205 -70v-708l143 -23v-10h-463z" />
    <glyph glyph-name="s" unicode="s" horiz-adv-x="790" 
d="M59 96l4 238l15 2l96 -211q50 -45 118.5 -79.5t123.5 -35.5q72 0 118 47.5t46 149.5q0 34 -22.5 65t-59 54.5t-83.5 48.5t-95.5 46.5t-95.5 49.5t-83.5 57.5t-59 70t-22.5 87.5q0 107 90.5 190t239.5 111q77 -3 262 -74l43 -211h-14l-125 146q-93 93 -223 96
q-73 -4 -108.5 -42.5t-35.5 -102.5q0 -38 30 -73t78.5 -64t106.5 -58.5t116 -61.5t106 -67t77.5 -81.5t28.5 -98.5q0 -262 -366 -324q-73 0 -173 46t-133 79z" />
    <glyph glyph-name="t" unicode="t" horiz-adv-x="657" 
d="M10 903v21l162 67l137 228l25 -2l-8 -259h329v-59l-77 -10l-242 6l4 -637q-1 -76 31.5 -120t79.5 -46q50 0 90.5 16.5t113.5 67.5l13 -12q-87 -70 -138.5 -108.5t-123.5 -82.5q-116 9 -174.5 69t-69.5 175l-8 682h-7z" />
    <glyph glyph-name="u" unicode="u" horiz-adv-x="1120" 
d="M16 918v10l328 35v-580q0 -266 166 -266q58 0 138 27.5t134 91.5v694l-141 22v11h324v-916l139 -35v-12h-291l-25 4l19 217h-8q-63 -79 -174 -161.5t-144 -84.5q-170 9 -244.5 100t-74.5 271v559z" />
    <glyph glyph-name="v" unicode="v" horiz-adv-x="909" 
d="M1022 963v-13l-160 -35h-2l-301 -919h-43l-151 -10l-304 942l-122 26v9h444v-9l-125 -26l279 -871v-2l282 863h-2l-131 32v13h336z" />
    <glyph glyph-name="w" unicode="w" horiz-adv-x="1476" 
d="M-61 954v9h444v-9l-125 -26l272 -852l193 629l-88 258h201l288 -908l271 863l-142 32v13h336v-13l-159 -35l-283 -919h-35l-145 -10l-228 665l-190 -624l10 -31h-43l-151 -10l-304 942z" />
    <glyph glyph-name="x" unicode="x" horiz-adv-x="968" 
d="M-41 0v12l170 31l272 401l-317 486l-119 24v9h438v-9l-106 -22l229 -348l236 338l-123 28v13h336v-13l-170 -28l-258 -371l342 -518l121 -25v-8h-439v8l103 21l-250 381l-254 -365h2l123 -33v-12h-336z" />
    <glyph glyph-name="y" unicode="y" horiz-adv-x="989" 
d="M-20 952v11h393v-9l-99 -18l322 -784l-2 -33l2 4l252 795l-141 32v13h364v-13l-174 -35l-424 -1228q-15 -58 -69.5 -110t-104.5 -78t-88 -36q-33 0 -154 64l95 151q111 -79 163 -79q25 0 42.5 5t39.5 26t37 59l144 370l-142 -22l-362 901z" />
    <glyph glyph-name="z" unicode="z" horiz-adv-x="886" 
d="M49 29l584 911h-412l-106 -254l-19 4l8 260v13h717l17 -25l-562 -915h422l103 274l18 -4l-4 -293h-741z" />
    <glyph glyph-name="bar" unicode="|" 
 />
    <glyph glyph-name="asciitilde" unicode="~" 
 />
    <glyph glyph-name="exclamdown" unicode="&#xa1;" horiz-adv-x="1167" 
d="M569 971q44 0 75.5 -31.5t31.5 -77.5q0 -44 -31.5 -75t-75.5 -31t-75 31t-31 75q0 46 31 77.5t75 31.5zM551 612h47q0 -181 24 -365.5t48 -364.5t24 -349q0 -16 -27 -27.5t-51 -11.5l-139 37q0 202 37 532t37 549z" />
    <glyph glyph-name="cent" unicode="&#xa2;" horiz-adv-x="837" 
d="M565 100q44 0 93.5 34.5t78 68t51.5 67.5l29 -16q-33 -49 -135.5 -148t-173.5 -133q-100 0 -197 33l-114 -350h-7l-16 18l111 340q-125 53 -193.5 164t-68.5 268q0 198 142 354t343 187q48 0 92 -12l96 295l25 8h10l-102 -311q83 -29 136 -90.5t54 -143.5
q-39 -17 -76 -21t-88 1q-11 15 -34 59.5t-35 65.5l-221 -670q84 -68 200 -68zM215 547q0 -237 127 -361l223 686q-53 82 -96 82q-80 0 -139.5 -61.5t-87 -152.5t-27.5 -193z" />
    <glyph glyph-name="sterling" unicode="&#xa3;" 
d="M94 623l17 39h256q-16 40 -60 130t-65 150t-21 113q0 19 55 84.5t129 137t157 128t130 57.5h27q93 0 187.5 -22t121.5 -64l-121 -168l-6 9q0 46 -73 93.5t-158 47.5q-144 0 -199 -42t-55 -163q0 -45 25.5 -118t56 -136.5t57 -131.5t27.5 -105h374l-20 -39h-350
q0 -35 -49.5 -131.5t-101.5 -181.5t-134 -214l2 -6q123 90 641 -41q38 30 58 81.5t16 76.5q-6 46 -66 74l113 170q42 -11 65.5 -54.5t24.5 -115.5q-1 -22 -58.5 -96t-135.5 -158l-80 -86q-49 23 -84 38t-95 37.5t-112 31.5t-112.5 13t-119.5 -10.5t-112 -44.5l-56 -86h-51
q45 71 107 163t94 140t57.5 100.5t26.5 88.5q3 101 -41 211h-289z" />
    <glyph glyph-name="currency" unicode="&#xa4;" 
 />
    <glyph glyph-name="yen" unicode="&#xa5;" 
 />
    <glyph glyph-name="brokenbar" unicode="&#xa6;" 
 />
    <glyph glyph-name="section" unicode="&#xa7;" 
 />
    <glyph glyph-name="dieresis" unicode="&#xa8;" 
 />
    <glyph glyph-name="copyright" unicode="&#xa9;" 
 />
    <glyph glyph-name="guillemotleft" unicode="&#xab;" 
 />
    <glyph glyph-name="logicalnot" unicode="&#xac;" 
 />
    <glyph glyph-name="registered" unicode="&#xae;" 
 />
    <glyph glyph-name="macron" unicode="&#xaf;" 
 />
    <glyph glyph-name="degree" unicode="&#xb0;" 
 />
    <glyph glyph-name="plusminus" unicode="&#xb1;" 
 />
    <glyph glyph-name="acute" unicode="&#xb4;" 
d="M551 1499q51 -20 53 -20v-2l-373 -369l-57 4q42 54 139 202.5t97 164.5z" />
    <glyph glyph-name="paragraph" unicode="&#xb6;" 
 />
    <glyph glyph-name="periodcentered" unicode="&#xb7;" horiz-adv-x="1167" 
 />
    <glyph glyph-name="cedilla" unicode="&#xb8;" 
 />
    <glyph glyph-name="guillemotright" unicode="&#xbb;" 
 />
    <glyph glyph-name="questiondown" unicode="&#xbf;" horiz-adv-x="1167" 
d="M700 872q0 -44 -31 -75t-75 -31t-75.5 31t-31.5 75q0 46 31.5 77.5t75.5 31.5t75 -31.5t31 -77.5zM909 -242l-26 4q-44 -56 -127 -101.5t-158 -45.5q-81 0 -135.5 57t-54.5 160q0 73 32 146t78 127t95.5 97t86.5 65t48 22q0 58 -20.5 125.5t-42 108t-28.5 40.5l-145 -117
l4 -4q29 0 59.5 -59t30.5 -117q0 -27 -31.5 -57.5t-78 -58t-101.5 -65.5t-101.5 -77.5t-78 -97.5t-31.5 -123q0 -77 59 -143t140.5 -101t157.5 -35q37 0 163 77t205 173z" />
    <glyph glyph-name="Agrave" unicode="&#xc0;" 
d="M756 1530h-45l-320 242q0 16 13 20t53 4l145 -2zM1296 37l156 -25v-12h-516v12l137 21l-145 471h-549l-162 -461l180 -31v-12h-409v12l168 33l481 1348l-154 28v13h226l137 10l448 -1407h2zM393 543h522l-239 774l-4 20v2z" />
    <glyph glyph-name="Aacute" unicode="&#xc1;" 
d="M1044 1772l-319 -263h-66l175 265l155 22zM1296 37l156 -25v-12h-516v12l137 21l-145 471h-549l-162 -461l180 -31v-12h-409v12l168 33l481 1348l-154 28v13h226l137 10l448 -1407h2zM393 543h522l-239 774l-4 20v2z" />
    <glyph glyph-name="Acircumflex" unicode="&#xc2;" horiz-adv-x="1351" 
d="M678 1696l-217 -150l-33 17l229 276h41l230 -276l-33 -17zM1278 37l156 -25v-12h-516v12l137 21l-146 471h-549l-161 -461l180 -31v-12h-410v12l168 33l481 1348l-153 28v13h225l137 10l449 -1407h2zM375 543h522l-240 774l-4 20v2z" />
    <glyph glyph-name="Atilde" unicode="&#xc3;" horiz-adv-x="1351" 
d="M815 1628q-30 0 -76 4.5t-80.5 8.5t-73.5 2.5t-64 -10.5t-41.5 -33.5t-16.5 -63.5h-35q0 37 17.5 73t39 59.5t52 46.5t45 31.5t30.5 16.5q40 0 87.5 -3t78 -5.5t64 -3.5t53.5 3t37.5 14.5t25 31.5t7.5 53h34q0 -36 -17.5 -71.5t-39 -59t-52 -46.5t-45 -31.5t-30.5 -16.5z
M1278 37l156 -25v-12h-516v12l137 21l-146 471h-549l-161 -461l180 -31v-12h-410v12l168 33l481 1348l-153 28v13h225l137 10l449 -1407h2zM375 543h522l-240 774l-4 20v2z" />
    <glyph glyph-name="Adieresis" unicode="&#xc4;" horiz-adv-x="1351" 
d="M535 1516q-41 0 -71 29t-30 69t30 69t71 29q40 0 68 -29t28 -69t-28 -69t-68 -29zM827 1516q-40 0 -69 29t-29 69t29 69t69 29t69.5 -29t29.5 -69t-29.5 -69t-69.5 -29zM1278 37l156 -25v-12h-516v12l137 21l-146 471h-549l-161 -461l180 -31v-12h-410v12l168 33
l481 1348l-153 28v13h225l137 10l449 -1407h2zM375 543h522l-240 774l-4 20v2z" />
    <glyph glyph-name="Aring" unicode="&#xc5;" horiz-adv-x="1351" 
d="M686 1536q-72 0 -123 51t-51 123q0 71 51 121.5t123 50.5q70 0 121 -51t51 -121q0 -72 -50.5 -123t-121.5 -51zM686 1823q-42 0 -69 -33.5t-27 -77.5q0 -47 26.5 -81t69.5 -34q42 0 68 34t26 81q0 43 -26.5 77t-67.5 34zM1278 37l156 -25v-12h-516v12l137 21l-146 471
h-549l-161 -461l180 -31v-12h-410v12l168 33l481 1348l-153 28v13h225l137 10l449 -1407h2zM375 543h522l-240 774l-4 20v2z" />
    <glyph glyph-name="AE" unicode="&#xc6;" horiz-adv-x="2185" 
d="M2097 383l17 -4l-46 -379h-1095v12l157 41v451h-610l-307 -463l166 -29v-12h-410v12l183 33l901 1344l-244 32v13h1208l51 6l33 -383h-12q-37 75 -106 186.5t-117 151.5h-531v-631h412l88 199h12v-435h-12l-88 197h-412v-686h520q48 31 127.5 151.5t114.5 192.5zM547 543
h583v774q0 16 -5.5 36t-16.5 27z" />
    <glyph glyph-name="Ccedilla" unicode="&#xc7;" horiz-adv-x="1280" 
d="M1249 328q-22 -34 -113 -102.5t-200 -135.5l-381 -258q40 26 97.5 36.5t111.5 3.5t92.5 -42t38.5 -94q0 -56 -24.5 -103t-58.5 -73t-71 -44.5t-60.5 -25t-29.5 -6.5q-31 0 -79.5 16t-90 45.5t-41.5 59.5q39 31 88 43q0 -50 47 -98t82 -48q20 0 42.5 10t46 30.5t38.5 61
t15 93.5q0 41 -19.5 68t-47.5 38t-66 15t-68 1.5t-62 -6t-40 -3.5l-7 8l207 155q-146 6 -268 56t-210.5 137.5t-137.5 216t-49 283.5q0 142 59.5 278.5t159 241t233 177t277.5 95.5q244 0 381 -49l63 -389l-26 -6q-30 72 -77.5 140.5t-108.5 126.5t-137 93t-153 35
q-119 0 -232 -94t-181 -237t-68 -285q0 -325 150.5 -498.5t443.5 -173.5q96 0 230.5 89t179.5 155z" />
    <glyph glyph-name="Egrave" unicode="&#xc8;" 
d="M735 1536h-65l-320 262l56 25l155 -23zM1206 383l17 -4l-45 -379h-1096v12l158 41v1327l-179 41v13h1065l52 6l32 -383h-12q-37 75 -106 186.5t-117 151.5h-531v-631h412l88 199h12v-435h-12l-88 197h-412v-686h521q48 31 127 151.5t114 192.5z" />
    <glyph glyph-name="Eacute" unicode="&#xc9;" 
d="M1001 1772l-319 -263h-66l175 265l155 22zM1206 383l17 -4l-45 -379h-1096v12l158 41v1327l-179 41v13h1065l52 6l32 -383h-12q-37 75 -106 186.5t-117 151.5h-531v-631h412l88 199h12v-435h-12l-88 197h-412v-686h521q48 31 127 151.5t114 192.5z" />
    <glyph glyph-name="Ecircumflex" unicode="&#xca;" horiz-adv-x="1232" 
d="M659 1696l-217 -150l-32 17l229 276h41l229 -276l-32 -17zM1145 383l16 -4l-45 -379h-1096v12l158 41v1336l-123 18v27h1010l51 6l33 -383h-12q-37 74 -106.5 186t-117.5 152h-530v-631h412l88 199h12v-435h-12l-88 197h-412v-686h520q48 31 127.5 151.5t114.5 192.5z
" />
    <glyph glyph-name="Edieresis" unicode="&#xcb;" horiz-adv-x="1243" 
d="M479 1516q-41 0 -70.5 29t-29.5 69t29.5 69t70.5 29q40 0 68 -29t28 -69t-28 -69t-68 -29zM772 1516q-40 0 -69 29t-29 69t29 69t69 29t69 -29t29 -69t-29 -69t-69 -29zM1145 383l16 -4l-45 -379h-1096v12l158 41v1336l-123 18v27h1010l51 6l33 -383h-12
q-37 74 -106.5 186t-117.5 152h-530v-631h412l88 199h12v-435h-12l-88 197h-412v-686h520q48 31 127.5 151.5t114.5 192.5z" />
    <glyph glyph-name="Igrave" unicode="&#xcc;" horiz-adv-x="602" 
d="M338 1536h-66l-319 262l55 25l156 -23zM403 33l138 -21v-12h-480v12l138 21v1368l-138 20v13h463v-13l-121 -20v-1368z" />
    <glyph glyph-name="Iacute" unicode="&#xcd;" horiz-adv-x="698" 
d="M637 1772l-320 -263h-65l174 265l156 22zM403 1401v-1368l138 -21v-12h-480v12l138 21v1368l-138 20v13h463v-13z" />
    <glyph glyph-name="Icircumflex" unicode="&#xce;" horiz-adv-x="602" 
d="M311 1696l-217 -150l-33 17l230 276h41l229 -276l-33 -17zM403 1401v-1368l138 -21v-12h-480v12l138 21v1368l-138 20v13h463v-13z" />
    <glyph glyph-name="Idieresis" unicode="&#xcf;" horiz-adv-x="602" 
d="M174 1516q-41 0 -70.5 29t-29.5 69t29.5 69t70.5 29q40 0 68 -29t28 -69t-28 -69t-68 -29zM467 1516q-40 0 -69 29t-29 69t29 69t69 29t69 -29t29 -69t-29 -69t-69 -29zM403 1401v-1368l138 -21v-12h-480v12l138 21v1368l-138 20v13h463v-13z" />
    <glyph glyph-name="Eth" unicode="&#xd0;" horiz-adv-x="1566" 
d="M797 1436q338 12 533.5 -157t195.5 -495q0 -108 -34 -208t-89.5 -176.5t-126 -143t-143.5 -112t-143 -79t-122.5 -50t-83.5 -17.5l-723 2v12l199 41v719h-133v29l133 8v571l-178 41v13zM864 84q222 0 326 172.5t104 505.5q0 339 -163.5 490t-499.5 151q-112 0 -166 -12
v-582l135 -8v-29h-135v-629q63 -59 399 -59z" />
    <glyph glyph-name="Ntilde" unicode="&#xd1;" horiz-adv-x="1505" 
d="M938 1628q-30 0 -76 4.5t-80.5 8.5t-73.5 2.5t-64 -10.5t-41.5 -33.5t-16.5 -63.5h-35q0 37 17.5 73t39 59.5t52 46.5t45 31.5t30.5 16.5q40 0 87 -3t78 -5.5t64 -3.5t53 3t37.5 14.5t25 31.5t7.5 53h35q0 -36 -17.5 -71.5t-39 -59t-52 -46.5t-45 -31.5t-30.5 -16.5z
M1434 1434v-13l-207 -35l-2 -1386h-103l-852 1354l2 -1305l207 -37v-12h-459v12l189 35l8 1339l-139 21v27h205l192 6l694 -1096l-6 1042l-229 35v13h500z" />
    <glyph glyph-name="Ograve" unicode="&#xd2;" horiz-adv-x="1478" 
d="M817 1536l-174 264l-156 23l-55 -25l320 -262h65zM1438 743q0 -108 -34.5 -207.5t-91 -174.5t-128 -140.5t-145.5 -110t-145 -77t-124 -48t-84 -16.5q-325 0 -485 190.5t-160 534.5q0 98 33 191.5t87 167t122.5 139.5t140.5 113t140 82t121 53t85 20q316 -7 492 -196
t176 -521zM760 59q105 0 191.5 45t143 122.5t87 181t30.5 221.5q0 360 -141 545.5t-377 185.5q-139 0 -243 -81t-155.5 -211.5t-51.5 -289.5q0 -133 34.5 -252t89.5 -202t123.5 -144.5t137.5 -91t131 -29.5z" />
    <glyph glyph-name="Oacute" unicode="&#xd3;" 
d="M719 1509h65l320 263l-55 24l-156 -22zM1427 743q0 -108 -34.5 -207.5t-90.5 -174.5t-128 -140.5t-145.5 -110t-144.5 -77t-124 -48t-84 -16.5q-325 0 -485 190.5t-160 534.5q0 98 33 191.5t87 167t122.5 139.5t140.5 113t140 82t121 53t85 20q316 -7 491.5 -196
t175.5 -521zM750 59q105 0 191.5 45t143 122.5t87 181t30.5 221.5q0 360 -141 545.5t-377 185.5q-139 0 -243 -81t-156 -211.5t-52 -289.5q0 -133 34.5 -252t89.5 -202t124 -144.5t138 -91t131 -29.5z" />
    <glyph glyph-name="Ocircumflex" unicode="&#xd4;" horiz-adv-x="1458" 
d="M762 1696l-217 -150l-33 17l229 276h41l230 -276l-33 -17zM770 1460q316 -7 492 -196t176 -521q0 -108 -34.5 -207.5t-91 -174.5t-128 -140.5t-145.5 -110t-145 -77t-124 -48t-84 -16.5q-325 0 -485 190.5t-160 534.5q0 98 33 191.5t87 167t122.5 139.5t140.5 113t140 82
t121 53t85 20zM760 59q105 0 191.5 45t143 122.5t87 181t30.5 221.5q0 360 -141 545.5t-377 185.5q-139 0 -243 -81t-155.5 -211.5t-51.5 -289.5q0 -133 34.5 -252t89.5 -202t123.5 -144.5t137.5 -91t131 -29.5z" />
    <glyph glyph-name="Otilde" unicode="&#xd5;" horiz-adv-x="1445" 
d="M469 1536q0 37 17.5 73t39 59.5t52 46.5t45 31.5t30.5 16.5q40 0 87.5 -3t78 -5.5t64 -3.5t53.5 3t37.5 14.5t25 31.5t7.5 53h34q0 -36 -17.5 -71.5t-39 -59t-52 -46.5t-45 -31.5t-30.5 -16.5q-30 0 -76 4.5t-80.5 8.5t-73.5 2.5t-64 -10.5t-41.5 -33.5t-16.5 -63.5h-35z
M1438 743q0 -108 -34.5 -207.5t-91 -174.5t-128 -140.5t-145.5 -110t-145 -77t-124 -48t-84 -16.5q-325 0 -485 190.5t-160 534.5q0 98 33 191.5t87 167t122.5 139.5t140.5 113t140 82t121 53t85 20q316 -7 492 -196t176 -521zM760 59q105 0 191.5 45t143 122.5t87 181
t30.5 221.5q0 360 -141 545.5t-377 185.5q-139 0 -243 -81t-155.5 -211.5t-51.5 -289.5q0 -133 34.5 -252t89.5 -202t123.5 -144.5t137.5 -91t131 -29.5z" />
    <glyph glyph-name="Odieresis" unicode="&#xd6;" 
d="M604 1516q-41 0 -70.5 29t-29.5 69t29.5 69t70.5 29q40 0 68 -29t28 -69t-28 -69t-68 -29zM897 1516q-40 0 -69 29t-29 69t29 69t69 29t69 -29t29 -69t-29 -69t-69 -29zM1438 743q0 -108 -34.5 -207.5t-91 -174.5t-128 -140.5t-145.5 -110t-145 -77t-124 -48t-84 -16.5
q-325 0 -485 190.5t-160 534.5q0 98 33 191.5t87 167t122.5 139.5t140.5 113t140 82t121 53t85 20q316 -7 492 -196t176 -521zM760 59q105 0 191.5 45t143 122.5t87 181t30.5 221.5q0 360 -141 545.5t-377 185.5q-139 0 -243 -81t-155.5 -211.5t-51.5 -289.5
q0 -133 34.5 -252t89.5 -202t123.5 -144.5t137.5 -91t131 -29.5z" />
    <glyph glyph-name="multiply" unicode="&#xd7;" 
 />
    <glyph glyph-name="Oslash" unicode="&#xd8;" horiz-adv-x="1478" 
d="M1141 1362q144 -87 220.5 -245t76.5 -374q0 -108 -34.5 -207.5t-91 -174.5t-128 -140.5t-145.5 -110t-145 -77t-124 -48t-84 -16.5q-182 0 -319 64l-70 -119h-117l99 172q-238 181 -238 608q0 98 33 191.5t87 167t122.5 139.5t140.5 113t140 82t121 53t85 20
q148 -3 272 -51l74 127h125zM244 778q0 -285 151 -493l572 993q-116 82 -273 82q-139 0 -243 -81t-155.5 -211.5t-51.5 -289.5zM760 59q105 0 191.5 45t143 122.5t87 181t30.5 221.5q0 382 -163 575l-584 -1001q70 -69 148.5 -106.5t146.5 -37.5z" />
    <glyph glyph-name="Ugrave" unicode="&#xd9;" 
d="M795 1536l-174 264l-156 23l-55 -25l319 -262h66zM102 1423v11h447v-15l-121 -14v-907q0 -195 87.5 -319t217.5 -124q180 0 301 137t121 353v835l-170 41v13h348v-13l-121 -41v-835q0 -133 -46 -243t-123 -180.5t-172.5 -108.5t-198.5 -38q-99 0 -178 29.5t-141 91
t-96 166.5t-34 248v895z" />
    <glyph glyph-name="Uacute" unicode="&#xda;" 
d="M739 1509h66l319 263l-55 24l-156 -22zM102 1423v11h447v-15l-121 -14v-907q0 -195 87.5 -319t217.5 -124q180 0 301 137t121 353v835l-170 41v13h348v-13l-121 -41v-835q0 -133 -46 -243t-123 -180.5t-172.5 -108.5t-198.5 -38q-99 0 -178 29.5t-141 91t-96 166.5
t-34 248v895z" />
    <glyph glyph-name="Ucircumflex" unicode="&#xdb;" 
d="M760 1696l-217 -150l-33 17l229 276h41l230 -276l-33 -17zM985 1434h348v-13l-121 -41v-835q0 -133 -46 -243t-123 -180.5t-172.5 -108.5t-198.5 -38q-99 0 -178 29.5t-141 91t-96 166.5t-34 248v895l-121 18v11h447v-15l-121 -14v-907q0 -195 87.5 -319t217.5 -124
q180 0 301 137t121 353v835l-170 41v13z" />
    <glyph glyph-name="Udieresis" unicode="&#xdc;" 
d="M631 1516q-41 0 -71 29t-30 69t30 69t71 29q40 0 68 -29t28 -69t-28 -69t-68 -29zM924 1516q-40 0 -69.5 29t-29.5 69t29.5 69t69.5 29t69 -29t29 -69t-29 -69t-69 -29zM102 1423v11h447v-15l-121 -14v-907q0 -195 87.5 -319t217.5 -124q180 0 301 137t121 353v835
l-170 41v13h348v-13l-121 -41v-835q0 -133 -46 -243t-123 -180.5t-172.5 -108.5t-198.5 -38q-99 0 -178 29.5t-141 91t-96 166.5t-34 248v895z" />
    <glyph glyph-name="Yacute" unicode="&#xdd;" 
d="M1001 1772l-319 -263h-66l175 265l155 22zM1184 1434v-13l-160 -35l-354 -724v-629l137 -21v-12h-479v12l137 21v618l-377 750l-129 24v9h461v-9l-119 -24l340 -684l2 -17l334 689l-129 32v13h336z" />
    <glyph glyph-name="Thorn" unicode="&#xde;" 
 />
    <glyph glyph-name="germandbls" unicode="&#xdf;" horiz-adv-x="1292" 
d="M690 799q0 -38 30 -73t78 -64t106 -58.5t115.5 -61.5t105.5 -67t78 -81.5t30 -98.5q0 -261 -367 -324q-73 0 -172 45.5t-133 79.5l4 238l15 2l96 -211q51 -46 119 -80.5t123 -34.5q72 0 117.5 47.5t45.5 149.5q0 39 -28.5 73.5t-74.5 61t-101.5 53t-111 55t-101.5 61
t-74.5 77.5t-28.5 98t25.5 101.5t62.5 88t74 80.5t62.5 97.5t25.5 122.5q0 74 -27.5 128.5t-73 83t-94.5 41.5t-102 13q-82 0 -133 -88l-10 -1321l135 -23v-10h-455v10l137 23v882h-137v29l137 8v97q0 72 79.5 191.5t174.5 212.5t146 108q179 -14 291 -110.5t112 -264.5
q0 -41 -31 -83.5t-75.5 -78.5t-88.5 -71t-75 -75.5t-31 -78.5z" />
    <glyph glyph-name="agrave" unicode="&#xe0;" 
d="M578 1112h-58l-352 365v2l53 20l141 -20q0 -14 108 -190t108 -177zM879 33l137 -23v-10h-320l19 291h-8q-211 -278 -310 -318q-166 0 -266 123.5t-100 358.5q0 91 38.5 173.5t94 139.5t127 104.5t127 73.5t104.5 41q250 0 357 -94h2zM459 121q88 0 233 180l4 477
q-99 123 -221 123q-143 0 -206.5 -89.5t-63.5 -283.5q0 -179 79 -293t175 -114z" />
    <glyph glyph-name="aacute" unicode="&#xe1;" 
d="M926 1477l-353 -365h-57q0 1 107.5 177t107.5 190l141 20q52 -20 54 -20v-2zM879 33l137 -23v-10h-320l19 291h-8q-211 -278 -310 -318q-166 0 -266 123.5t-100 358.5q0 91 38.5 173.5t94 139.5t127 104.5t127 73.5t104.5 41q252 0 359 -94zM459 121q88 0 233 180l4 477
q-99 123 -221 123q-143 0 -206.5 -89.5t-63.5 -283.5q0 -179 79 -293t175 -114z" />
    <glyph glyph-name="acircumflex" unicode="&#xe2;" horiz-adv-x="1042" 
d="M551 1356l-217 -150l-33 17l229 276h41l230 -276l-33 -17zM889 33l137 -23v-10h-305l4 291h-8q-212 -278 -309 -318q-166 0 -266.5 123.5t-100.5 358.5q0 91 38.5 173.5t94 139.5t127 104.5t127 73.5t104.5 41q252 0 359 -94zM469 121q88 0 233 180l5 477
q-99 123 -222 123q-143 0 -206.5 -89.5t-63.5 -283.5q0 -179 79 -293t175 -114z" />
    <glyph glyph-name="atilde" unicode="&#xe3;" horiz-adv-x="1021" 
d="M307 1217q0 37 17.5 73t39 59.5t52.5 46.5t45.5 31.5t30.5 16.5q40 0 87 -3t78 -5.5t64 -3.5t53 3t37.5 14.5t25 31.5t7.5 53h35q0 -36 -17.5 -71.5t-39 -59t-52.5 -46.5t-45.5 -31.5t-30.5 -16.5q-30 0 -76 4.5t-80.5 8.5t-73.5 2.5t-64 -10.5t-41.5 -33.5t-16.5 -63.5
h-35zM20 455q0 91 38.5 173.5t94.5 139.5t127.5 104.5t127 73.5t104.5 41q251 0 358 -94l-2 -860l138 -23v-10h-306l5 256h-11q-80 -98 -164 -178.5t-143 -104.5q-166 0 -266.5 123.5t-100.5 358.5zM195 528q0 -179 79 -293t175 -114q103 0 233 147l4 510q-99 123 -221 123
q-143 0 -206.5 -89.5t-63.5 -283.5z" />
    <glyph glyph-name="adieresis" unicode="&#xe4;" horiz-adv-x="1021" 
d="M481 1288q-41 0 -70.5 29t-29.5 69t29.5 69.5t70.5 29.5q40 0 68.5 -29.5t28.5 -69.5t-28.5 -69t-68.5 -29zM774 1288q-40 0 -69 29t-29 69t29 69.5t69 29.5t69 -29.5t29 -69.5t-29 -69t-69 -29zM20 455q0 91 38.5 173.5t94.5 139.5t127.5 104.5t127 73.5t104.5 41
q251 0 358 -94l-2 -860l138 -23v-10h-306l5 256h-11q-80 -98 -164 -178.5t-143 -104.5q-166 0 -266.5 123.5t-100.5 358.5zM195 528q0 -179 79 -293t175 -114q103 0 233 147l4 510q-99 123 -221 123q-143 0 -206.5 -89.5t-63.5 -283.5z" />
    <glyph glyph-name="aring" unicode="&#xe5;" horiz-adv-x="1048" 
d="M563 1090q-72 0 -123 51t-51 123q0 71 51 121.5t123 50.5q71 0 121.5 -51t50.5 -121q0 -72 -50.5 -123t-121.5 -51zM563 1151q42 0 68 34t26 81q0 43 -26.5 76.5t-67.5 33.5q-42 0 -69 -33t-27 -77q0 -47 26.5 -81t69.5 -34zM20 455q0 91 38.5 173.5t94.5 139.5
t127.5 104.5t127 73.5t104.5 41q251 0 358 -94l-2 -860l138 -23v-10h-306l5 256h-11q-80 -98 -164 -178.5t-143 -104.5q-166 0 -266.5 123.5t-100.5 358.5zM195 528q0 -179 79 -293t175 -114q103 0 233 147l4 510q-99 123 -221 123q-143 0 -206.5 -89.5t-63.5 -283.5z" />
    <glyph glyph-name="ae" unicode="&#xe6;" horiz-adv-x="1564" 
d="M23 455q0 91 38.5 173.5t94 139.5t127 104.5t127 73.5t104.5 41q70 0 129.5 -12.5t104 -35.5t70.5 -41.5t54 -43.5q114 99 273 133q108 3 180.5 -22t116 -83t62 -140t20.5 -203l-652 -4v-27q9 -178 107.5 -291t267.5 -113q79 0 148 39.5t116 92.5l23 -21
q-127 -127 -317 -221q-44 -12 -105 -12q-142 0 -244.5 81t-142.5 218h-12q-76 -100 -169.5 -191.5t-154.5 -116.5q-166 0 -266 123.5t-100 358.5zM872 553l455 20q8 20 8 31q0 156 -67.5 242.5t-169.5 83.5q-121 -4 -170.5 -80t-55.5 -229v-68zM197 528q0 -179 79 -293
t175 -114q88 0 233 180l4 477q-99 123 -221 123q-143 0 -206.5 -89.5t-63.5 -283.5z" />
    <glyph glyph-name="ccedilla" unicode="&#xe7;" horiz-adv-x="839" 
d="M565 100q63 0 130.5 56t103.5 110l18 -12q-16 -25 -69 -81t-111 -107q-54 -46 -78 -62l-217 -172q40 26 97.5 36.5t111.5 3.5t92.5 -42t38.5 -94q0 -56 -24.5 -103t-58.5 -73t-71 -44.5t-60.5 -25t-29.5 -6.5q-31 0 -79.5 16t-90 45.5t-41.5 59.5q39 31 88 43
q0 -50 47 -98t82 -48q20 0 42.5 10t46 30.5t38.5 61t15 93.5q0 41 -18 68t-43.5 38t-61 15t-64 1.5t-58.5 -6t-38 -3.5l-6 8l195 155q-216 6 -342.5 131.5t-126.5 341.5q0 198 142 354t343 187q125 0 216.5 -71.5t94.5 -182.5q-38 -18 -76 -22t-88 2q-12 17 -47.5 87
t-69 112t-69.5 42q-80 0 -139.5 -61.5t-87 -152.5t-27.5 -193q0 -127 39.5 -227t120 -160t190.5 -60z" />
    <glyph glyph-name="egrave" unicode="&#xe8;" horiz-adv-x="882" 
d="M645 1112l-57 -4l-352 369v2l53 20l141 -20q0 -17 88.5 -168t126.5 -199zM836 229l16 -14q-127 -127 -317 -221q-44 -12 -105 -12q-187 0 -297 134.5t-110 348.5q0 198 119.5 338.5t320.5 183.5q108 3 180.5 -22t116 -83t62 -140t20.5 -203l-654 -4q3 -188 102.5 -309.5
t274.5 -121.5q81 0 154 37.5t117 87.5zM416 930q-55 -2 -95.5 -20t-66 -48.5t-40.5 -79t-20.5 -102.5t-5.5 -127l457 20q8 20 8 31q0 156 -67.5 242.5t-169.5 83.5z" />
    <glyph glyph-name="eacute" unicode="&#xe9;" horiz-adv-x="927" 
d="M844 1499q51 -20 53 -20v-2l-352 -365h-58q0 1 107.5 177t107.5 190zM565 104q81 0 154 37.5t117 87.5l16 -14q-127 -127 -317 -221q-44 -12 -105 -12q-187 0 -297 134.5t-110 348.5q0 198 119.5 338.5t320.5 183.5q108 3 180.5 -22t116 -83t62 -140t20.5 -203l-654 -4
q3 -188 102.5 -309.5t274.5 -121.5zM416 930q-55 -2 -95.5 -20t-66 -48.5t-40.5 -79t-20.5 -102.5t-5.5 -127l457 20q8 20 8 31q0 156 -67.5 242.5t-169.5 83.5z" />
    <glyph glyph-name="ecircumflex" unicode="&#xea;" horiz-adv-x="911" 
d="M496 1393l-215 -187l-33 17l229 276h41l230 -276l-33 -17zM858 236l23 -21q-126 -126 -318 -221q-44 -12 -104 -12q-188 0 -298 134.5t-110 348.5q0 198 120 338.5t321 183.5q108 3 180.5 -22t115.5 -83t61.5 -140t20.5 -203l-653 -4q3 -188 102.5 -309.5t274.5 -121.5
q79 0 148 39.5t116 92.5zM444 930q-55 -2 -95.5 -20t-65.5 -48.5t-40 -79t-20.5 -102.5t-5.5 -127l457 20q8 20 8 31q0 156 -68 242.5t-170 83.5z" />
    <glyph glyph-name="edieresis" unicode="&#xeb;" horiz-adv-x="882" 
d="M328 1270q-41 0 -71 29t-30 69t30 69t71 29q40 0 68 -29t28 -69t-28 -69t-68 -29zM621 1270q-40 0 -69.5 29t-29.5 69t29.5 69t69.5 29t69 -29t29 -69t-29 -69t-69 -29zM829 236l23 -21q-127 -127 -317 -221q-44 -12 -105 -12q-187 0 -297 134.5t-110 348.5
q0 198 119.5 338.5t320.5 183.5q108 3 180.5 -22t116 -83t62 -140t20.5 -203l-654 -4q3 -188 102.5 -309.5t274.5 -121.5q79 0 148 39.5t116 92.5zM416 930q-55 -2 -95.5 -20t-66 -48.5t-40.5 -79t-20.5 -102.5t-5.5 -127l457 20q8 20 8 31q0 156 -67.5 242.5t-169.5 83.5z
" />
    <glyph glyph-name="igrave" unicode="&#xec;" horiz-adv-x="575" 
d="M426 1112h-57l-353 365v2l54 20l141 -20q0 -14 107.5 -190t107.5 -177zM424 33l135 -23v-10h-455v10l138 23v897l-117 20v13h274l25 -5v-925z" />
    <glyph glyph-name="iacute" unicode="&#xed;" horiz-adv-x="577" 
d="M483 1499q52 -20 54 -20v-2l-353 -369l-57 4q38 48 126.5 199t88.5 168zM367 958v-925l135 -23v-10h-455v10l137 23v897l-116 20v13h274z" />
    <glyph glyph-name="icircumflex" unicode="&#xee;" horiz-adv-x="532" 
d="M264 1393l-215 -187l-33 17l230 276h41l229 -276l-33 -17zM358 958v-925l136 -23v-10h-455v10l137 23v897l-117 20v13h275z" />
    <glyph glyph-name="idieresis" unicode="&#xef;" horiz-adv-x="524" 
d="M117 1270q-41 0 -71 29t-30 69t30 69t71 29q40 0 68 -29t28 -69t-28 -69t-68 -29zM410 1270q-40 0 -69.5 29t-29.5 69t29.5 69t69.5 29t69 -29t29 -69t-29 -69t-69 -29zM39 0v10l137 23v897l-117 20v13h275l24 -5v-925l136 -23v-10h-455z" />
    <glyph glyph-name="eth" unicode="&#xf0;" horiz-adv-x="993" 
d="M598 1298q82 -66 149 -144t122.5 -175.5t86 -218t31.5 -252.5v-8q0 -85 -31 -162t-81.5 -132t-109 -99.5t-118 -72.5t-103.5 -43t-71 -18q-221 0 -335.5 131.5t-114.5 362.5q0 84 41 166.5t102.5 142.5t132 108.5t131.5 74t100 28.5q53 0 111 -10l64 -72q-3 4 -18.5 43
t-18.5 43q-79 136 -172 252l-99 -53l-106 -62l-12 23l102 68l94 51q-177 213 -338 237l10 29q226 -63 424 -215l193 104l10 -18l-55 -43zM543 41q70 0 122.5 39.5t80 101.5t40.5 123t13 117q0 102 -31.5 194.5t-80.5 155t-109 99t-117 36.5q-71 0 -121.5 -31t-77.5 -87.5
t-39 -121t-12 -143.5q0 -108 32.5 -202.5t82.5 -154t107 -93t110 -33.5z" />
    <glyph glyph-name="ntilde" unicode="&#xf1;" 
d="M346 1217q0 37 17.5 73t39 59.5t52 46.5t45 31.5t30.5 16.5q40 0 87.5 -3t78 -5.5t64 -3.5t53.5 3t37.5 14.5t25 31.5t7.5 53h35q0 -36 -17.5 -71.5t-39 -59t-52.5 -46.5t-45.5 -31.5t-30.5 -16.5q-30 0 -76 4.5t-80.5 8.5t-73.5 2.5t-64 -10.5t-41.5 -33.5t-16.5 -63.5
h-35zM16 950v13h291l25 -5l-19 -202h9q81 81 184 155t133 76q170 -9 244.5 -102.5t74.5 -274.5v-577l138 -23v-10h-459v10l139 23v545q0 268 -166 268q-163 0 -272 -105v-708l139 -23v-10h-459v10l138 23v882z" />
    <glyph glyph-name="ograve" unicode="&#xf2;" horiz-adv-x="1038" 
d="M659 1112l-57 -4l-352 369v2l53 20l141 -20q0 -17 88.5 -168t126.5 -199zM559 987q223 -4 340 -131.5t117 -355.5q0 -85 -31 -162t-81.5 -132t-109 -99.5t-118 -72.5t-103.5 -43t-71 -18q-221 0 -336 131.5t-115 362.5q0 84 41 166.5t102.5 142.5t132.5 108.5t132 74
t100 28.5zM571 41q70 0 122.5 39.5t80 101.5t40.5 123t13 117q0 102 -31.5 194.5t-80.5 155t-109 99t-117 36.5q-249 0 -249 -383q0 -108 32.5 -202t82 -154t106.5 -93.5t110 -33.5z" />
    <glyph glyph-name="oacute" unicode="&#xf3;" 
d="M926 1477l-353 -365h-57q0 1 107.5 177t107.5 190l141 20q52 -20 54 -20v-2zM530 987q223 -4 340 -131.5t117 -355.5q0 -85 -31 -162t-81.5 -132t-109 -99.5t-118 -72.5t-103.5 -43t-71 -18q-221 0 -335.5 131.5t-114.5 362.5q0 84 41 166.5t102.5 142.5t132 108.5
t131.5 74t100 28.5zM543 41q70 0 122.5 39.5t80 101.5t40.5 123t13 117q0 102 -31.5 194.5t-80.5 155t-109 99t-117 36.5q-71 0 -121.5 -31t-77.5 -87.5t-39 -121t-12 -143.5q0 -108 32.5 -202.5t82.5 -154t107 -93t110 -33.5z" />
    <glyph glyph-name="ocircumflex" unicode="&#xf4;" 
d="M743 1356l-217 -150l-32 17l229 276h41l229 -276l-32 -17zM530 987q223 -4 340 -131.5t117 -355.5q0 -85 -31 -162t-81.5 -132t-109 -99.5t-118 -72.5t-103.5 -43t-71 -18q-221 0 -335.5 131.5t-114.5 362.5q0 84 41 166.5t102.5 142.5t132 108.5t131.5 74t100 28.5z
M543 41q70 0 122.5 39.5t80 101.5t40.5 123t13 117q0 102 -31.5 194.5t-80.5 155t-109 99t-117 36.5q-71 0 -121.5 -31t-77.5 -87.5t-39 -121t-12 -143.5q0 -108 32.5 -202.5t82.5 -154t107 -93t110 -33.5z" />
    <glyph glyph-name="otilde" unicode="&#xf5;" 
d="M285 1217q0 37 17.5 73t39 59.5t52 46.5t45 31.5t30.5 16.5q40 0 87 -3t78 -5.5t64 -3.5t53 3t37.5 14.5t25 31.5t7.5 53h35q0 -36 -17.5 -71.5t-39 -59t-52 -46.5t-45 -31.5t-30.5 -16.5q-33 0 -91 6.5t-97.5 8.5t-80.5 -3.5t-62.5 -31t-21.5 -72.5h-34zM987 500
q0 -85 -31 -162t-81.5 -132t-109 -99.5t-118 -72.5t-103.5 -43t-71 -18q-221 0 -335.5 131.5t-114.5 362.5q0 84 41 166.5t102.5 142.5t132 108.5t131.5 74t100 28.5q223 -4 340 -131.5t117 -355.5zM543 41q70 0 122.5 39.5t80 101.5t40.5 123t13 117q0 102 -31.5 194.5
t-80.5 155t-109 99t-117 36.5q-71 0 -121.5 -31t-77.5 -87.5t-39 -121t-12 -143.5q0 -108 32.5 -202.5t82.5 -154t107 -93t110 -33.5z" />
    <glyph glyph-name="odieresis" unicode="&#xf6;" horiz-adv-x="1009" 
d="M436 1288q-41 0 -70.5 29t-29.5 69t29.5 69.5t70.5 29.5q39 0 67.5 -29.5t28.5 -69.5t-28 -69t-68 -29zM729 1288q-40 0 -69 29t-29 69t29 69.5t69 29.5t69 -29.5t29 -69.5t-29 -69t-69 -29zM987 500q0 -85 -31 -162t-81.5 -132t-109 -99.5t-118 -72.5t-103.5 -43
t-71 -18q-221 0 -335.5 131.5t-114.5 362.5q0 84 41 166.5t102.5 142.5t132 108.5t131.5 74t100 28.5q223 -4 340 -131.5t117 -355.5zM543 41q70 0 122.5 39.5t80 101.5t40.5 123t13 117q0 102 -31.5 194.5t-80.5 155t-109 99t-117 36.5q-71 0 -121.5 -31t-77.5 -87.5
t-39 -121t-12 -143.5q0 -108 32.5 -202.5t82.5 -154t107 -93t110 -33.5z" />
    <glyph glyph-name="divide" unicode="&#xf7;" 
 />
    <glyph glyph-name="oslash" unicode="&#xf8;" horiz-adv-x="1009" 
d="M694 963q144 -44 218.5 -162.5t74.5 -300.5q0 -85 -31 -162t-81.5 -132t-109 -99.5t-118 -72.5t-103.5 -43t-71 -18q-55 0 -104 9l-23 -68h-82l29 88q-133 47 -201.5 167.5t-68.5 297.5q0 84 41 166.5t102.5 142.5t132 108.5t131.5 74t100 28.5q40 0 80 -6l29 90h90z
M211 524q0 -225 129 -372l235 720q-59 35 -114 35q-71 0 -121.5 -31t-77.5 -87.5t-39 -121t-12 -143.5zM543 41q70 0 122.5 39.5t80 101.5t40.5 123t13 117q0 122 -42.5 225t-111.5 170l-239 -725q70 -51 137 -51z" />
    <glyph glyph-name="ugrave" unicode="&#xf9;" 
d="M885 1112h-58l-352 365v2l53 20l142 -20q0 -14 107.5 -190t107.5 -177zM965 47l139 -35v-12h-291l-25 4l19 217h-8q-63 -79 -174 -161.5t-144 -84.5q-170 9 -244.5 100t-74.5 271v559l-146 13v10l328 35v-580q0 -266 166 -266q58 0 138 27.5t134 91.5v694l-141 22v11h324
v-916z" />
    <glyph glyph-name="uacute" unicode="&#xfa;" 
d="M926 1477l-353 -365h-57q0 1 107.5 177t107.5 190l141 20q52 -20 54 -20v-2zM965 47l139 -35v-12h-291l-25 4l19 217h-8q-63 -79 -174 -161.5t-144 -84.5q-170 9 -244.5 100t-74.5 271v559l-146 13v10l328 35v-580q0 -266 166 -266q58 0 138 27.5t134 91.5v694l-141 22
v11h324v-916z" />
    <glyph glyph-name="ucircumflex" unicode="&#xfb;" 
d="M743 1356l-217 -150l-32 17l229 276h41l229 -276l-32 -17zM965 47l139 -35v-12h-291l-25 4l19 217h-8q-63 -79 -174 -161.5t-144 -84.5q-170 9 -244.5 100t-74.5 271v559l-146 13v10l328 35v-580q0 -266 166 -266q58 0 138 27.5t134 91.5v694l-141 22v11h324v-916z" />
    <glyph glyph-name="udieresis" unicode="&#xfc;" 
d="M481 1288q-41 0 -70.5 29t-29.5 69t29.5 69.5t70.5 29.5q40 0 68.5 -29.5t28.5 -69.5t-28.5 -69t-68.5 -29zM774 1288q-40 0 -69 29t-29 69t29 69.5t69 29.5t69 -29.5t29 -69.5t-29 -69t-69 -29zM16 918v10l328 35v-580q0 -266 166 -266q58 0 138 27.5t134 91.5v694
l-141 22v11h324v-916l139 -35v-12h-291l-25 4l19 217h-8q-63 -79 -174 -161.5t-144 -84.5q-170 9 -244.5 100t-74.5 271v559z" />
    <glyph glyph-name="yacute" unicode="&#xfd;" 
d="M926 1477l-353 -365h-57q0 1 107.5 177t107.5 190l141 20q52 -20 54 -20v-2zM707 963h364v-13l-174 -35l-424 -1228q-15 -58 -69.5 -110t-104.5 -78t-88 -36q-33 0 -154 64l95 151q111 -79 163 -79q25 0 42.5 5t39.5 26t37 59l144 370l-142 -22l-362 901l-94 14v11h393
v-9l-99 -18l322 -784l-2 -33l2 4l252 795l-141 32v13z" />
    <glyph glyph-name="thorn" unicode="&#xfe;" 
 />
    <glyph glyph-name="ydieresis" unicode="&#xff;" 
d="M481 1288q-41 0 -70.5 29t-29.5 69t29.5 69.5t70.5 29.5q40 0 68.5 -29.5t28.5 -69.5t-28.5 -69t-68.5 -29zM774 1288q-40 0 -69 29t-29 69t29 69.5t69 29.5t69 -29.5t29 -69.5t-29 -69t-69 -29zM-20 952v11h393v-9l-99 -18l322 -784l-2 -33l2 4l252 795l-141 32v13h364
v-13l-174 -35l-424 -1228q-15 -58 -69.5 -110t-104.5 -78t-88 -36q-33 0 -154 64l95 151q111 -79 163 -79q25 0 42.5 5t39.5 26t37 59l144 370l-142 -22l-362 901z" />
    <glyph glyph-name="OE" unicode="&#x152;" horiz-adv-x="1701" 
d="M41 694q0 98 33 190t87 163.5t122.5 135t140 108t140 77.5t121.5 49.5t85 18.5l45 -2h719l51 6l33 -383h-12q-37 74 -106.5 186t-117.5 152h-366q198 -67 307.5 -232t114.5 -399l88 199h12v-435h-12l-88 197q-3 -99 -43.5 -194.5t-101.5 -169t-140.5 -139t-153.5 -109
t-147 -74.5h520q48 31 127.5 151.5t114.5 192.5l16 -4l-45 -379h-919q-317 0 -471 179t-154 515zM244 778q0 -127 31 -236.5t84.5 -187.5t115 -132.5t131.5 -90.5v1196q-170 -36 -266 -185.5t-96 -363.5zM811 764h395q-23 235 -127.5 378t-267.5 181v-559zM811 92
q124 14 216.5 93t138.5 194.5t46 249.5q0 65 -2 96h-399v-633z" />
    <glyph glyph-name="oe" unicode="&#x153;" horiz-adv-x="1679" 
d="M1626 236l23 -21q-126 -126 -318 -221q-44 -12 -104 -12q-122 0 -213 59t-142 164q-87 -102 -210 -164t-189 -68q-221 0 -335.5 131.5t-114.5 362.5q0 84 41 166.5t102.5 142.5t132 108.5t131.5 74t100 28.5q279 -6 394 -203q118 156 336 203q108 3 180.5 -22t115.5 -83
t61.5 -140t20.5 -203l-651 -4v-35v-4q12 -172 111 -282t264 -110q79 0 148 39.5t116 92.5zM1212 930q-55 -2 -95.5 -20t-65.5 -48t-39.5 -78t-20 -101t-6.5 -126v-4l457 20q8 20 8 31q0 156 -68 242.5t-170 83.5zM543 41q70 0 122.5 39.5t80 101.5t40.5 123t13 117
q0 102 -31.5 194.5t-80.5 155t-109 99t-117 36.5q-71 0 -121.5 -31t-77.5 -87.5t-39 -121t-12 -143.5q0 -108 32.5 -202.5t82.5 -154t107 -93t110 -33.5z" />
    <glyph glyph-name="Wcircumflex" unicode="&#x174;" horiz-adv-x="2179" 
d="M1122 1696l-217 -150l-33 17l230 276h41l229 -276l-33 -17zM2251 1434v-13l-164 -41l-418 -1380h-65l-156 -14l-352 1110l-348 -1096h-66l-156 -14l-428 1407l-139 28v13h516v-13l-147 -32l385 -1285h6l344 1090l-76 240h227l420 -1330h4l385 1278l-161 39v13h389z" />
    <glyph glyph-name="wcircumflex" unicode="&#x175;" 
d="M743 1356l-217 -150l-32 17l229 276h41l229 -276l-32 -17zM1253 963h336v-13l-159 -35l-283 -919h-35l-145 -10l-228 665l-190 -624l10 -31h-43l-151 -10l-304 942l-122 26v9h444v-9l-125 -26l272 -852l193 629l-88 258h201l288 -908l271 863l-142 32v13z" />
    <glyph glyph-name="Ycircumflex" unicode="&#x176;" 
d="M311 1696l-217 -150l-33 17l230 276h41l229 -276l-33 -17zM1184 1434v-13l-160 -35l-354 -724v-629l137 -21v-12h-479v12l137 21v618l-377 750l-129 24v9h461v-9l-119 -24l340 -684l2 -17l334 689l-129 32v13h336z" />
    <glyph glyph-name="ycircumflex" unicode="&#x177;" horiz-adv-x="989" 
d="M545 1356l-217 -150l-33 17l229 276h41l230 -276l-33 -17zM707 963h364v-13l-174 -35l-424 -1228q-15 -58 -69.5 -110t-104.5 -78t-88 -36q-33 0 -154 64l95 151q111 -79 163 -79q25 0 42.5 5t39.5 26t37 59l144 370l-142 -22l-362 901l-94 14v11h393v-9l-99 -18
l322 -784l-2 -33l2 4l252 795l-141 32v13z" />
    <glyph glyph-name="Ydieresis" unicode="&#x178;" 
d="M481 1516q-41 0 -70.5 29t-29.5 69t29.5 69t70.5 29q40 0 68.5 -29t28.5 -69t-28.5 -69t-68.5 -29zM774 1516q-40 0 -69 29t-29 69t29 69t69 29t69 -29t29 -69t-29 -69t-69 -29zM1184 1434v-13l-160 -35l-354 -724v-629l137 -21v-12h-479v12l137 21v618l-377 750l-129 24
v9h461v-9l-119 -24l340 -684l2 -17l334 689l-129 32v13h336z" />
    <glyph glyph-name="circumflex" unicode="&#x2c6;" 
 />
    <glyph glyph-name="caron" unicode="&#x2c7;" 
 />
    <glyph glyph-name="breve" unicode="&#x2d8;" 
 />
    <glyph glyph-name="dotaccent" unicode="&#x2d9;" 
 />
    <glyph glyph-name="ring" unicode="&#x2da;" 
 />
    <glyph glyph-name="ogonek" unicode="&#x2db;" 
 />
    <glyph glyph-name="tilde" unicode="&#x2dc;" 
 />
    <glyph glyph-name="hungarumlaut" unicode="&#x2dd;" 
 />
    <glyph glyph-name="gravecomb" unicode="&#x300;" horiz-adv-x="0" 
d="M-559 1479q0 -14 107.5 -190t107.5 -177h-57l-353 365v2l54 20z" />
    <glyph glyph-name="acutecomb" unicode="&#x301;" horiz-adv-x="0" 
d="M-356 1499q51 -20 53 -20v-2l-352 -365h-58q0 1 107.5 177t107.5 190z" />
    <glyph glyph-name="uni0302" unicode="&#x302;" horiz-adv-x="0" 
d="M-236 1223l-32 -17l-217 150l-217 -150l-33 17l229 276h41z" />
    <glyph glyph-name="tildecomb" unicode="&#x303;" horiz-adv-x="0" 
d="M-596 1217q0 37 17.5 73t39 59.5t52 46.5t45 31.5t30.5 16.5q40 0 87.5 -3t78 -5.5t64 -3.5t53.5 3t37.5 14.5t25 31.5t7.5 53h34q0 -36 -17.5 -71.5t-39 -59t-52 -46.5t-45 -31.5t-30.5 -16.5q-30 0 -76 4.5t-80.5 8.5t-73.5 2.5t-64 -10.5t-41.5 -33.5t-16.5 -63.5h-35
z" />
    <glyph glyph-name="uni0307" unicode="&#x307;" horiz-adv-x="0" 
 />
    <glyph glyph-name="uni0308" unicode="&#x308;" horiz-adv-x="0" 
d="M-748 1288q-41 0 -70.5 29t-29.5 69t29.5 69.5t70.5 29.5q40 0 68.5 -29.5t28.5 -69.5t-28.5 -69t-68.5 -29zM-455 1288q-40 0 -69 29t-29 69t29 69.5t69 29.5t69.5 -29.5t29.5 -69.5t-29.5 -69t-69.5 -29z" />
    <glyph glyph-name="uni030A" unicode="&#x30a;" horiz-adv-x="0" 
d="M-666 1090q-72 0 -123 51t-51 123q0 71 51 121.5t123 50.5q70 0 121 -51t51 -121q0 -72 -50.5 -123t-121.5 -51zM-666 1151q42 0 68.5 34t26.5 81q0 43 -27 76.5t-68 33.5q-42 0 -69 -33t-27 -77q0 -47 26.5 -81t69.5 -34z" />
    <glyph glyph-name="uni0327" unicode="&#x327;" horiz-adv-x="0" 
d="M-580 78l17 -12l-295 -234q40 26 97.5 36.5t111.5 3.5t92.5 -42t38.5 -94q0 -56 -24.5 -103t-58.5 -73t-71 -44.5t-60.5 -25t-29.5 -6.5q-31 0 -79.5 16t-90 45.5t-41.5 59.5q39 31 88 43q0 -50 47 -98t82 -48q20 0 42.5 10t46 30.5t38.5 61t15 93.5q0 41 -18 68
t-43.5 38t-61 15t-64 1.5t-58.5 -6t-38 -3.5l-6 8z" />
    <glyph glyph-name="uni0335" unicode="&#x335;" horiz-adv-x="0" 
 />
    <glyph glyph-name="uni0338" unicode="&#x338;" horiz-adv-x="0" 
 />
    <glyph glyph-name="uni0410" unicode="&#x410;" horiz-adv-x="1351" 
d="M1278 37l156 -25v-12h-516v12l137 21l-146 471h-549l-161 -461l180 -31v-12h-410v12l168 33l481 1348l-153 28v13h225l137 10l449 -1407h2zM375 543h522l-240 774l-4 20v2z" />
    <glyph glyph-name="uni0426" unicode="&#x426;" 
 />
    <glyph glyph-name="Wgrave" unicode="&#x1e80;" horiz-adv-x="2179" 
d="M1206 1536h-65l-320 262l56 25l155 -23zM2251 1434v-13l-164 -41l-418 -1380h-65l-156 -14l-352 1110l-348 -1096h-66l-156 -14l-428 1407l-139 28v13h516v-13l-147 -32l385 -1285h6l344 1090l-76 240h227l420 -1330h4l385 1278l-161 39v13h389z" />
    <glyph glyph-name="wgrave" unicode="&#x1e81;" 
d="M885 1112h-58l-352 365v2l53 20l142 -20q0 -14 107.5 -190t107.5 -177zM1253 963h336v-13l-159 -35l-283 -919h-35l-145 -10l-228 665l-190 -624l10 -31h-43l-151 -10l-304 942l-122 26v9h444v-9l-125 -26l272 -852l193 629l-88 258h201l288 -908l271 863l-142 32v13z
" />
    <glyph glyph-name="Wacute" unicode="&#x1e82;" horiz-adv-x="2179" 
d="M1513 1772l-319 -263h-66l175 265l155 22zM2251 1434v-13l-164 -41l-418 -1380h-65l-156 -14l-352 1110l-348 -1096h-66l-156 -14l-428 1407l-139 28v13h516v-13l-147 -32l385 -1285h6l344 1090l-76 240h227l420 -1330h4l385 1278l-161 39v13h389z" />
    <glyph glyph-name="wacute" unicode="&#x1e83;" 
d="M926 1477l-353 -365h-57q0 1 107.5 177t107.5 190l141 20q52 -20 54 -20v-2zM1253 963h336v-13l-159 -35l-283 -919h-35l-145 -10l-228 665l-190 -624l10 -31h-43l-151 -10l-304 942l-122 26v9h444v-9l-125 -26l272 -852l193 629l-88 258h201l288 -908l271 863l-142 32
v13z" />
    <glyph glyph-name="Wdieresis" unicode="&#x1e84;" horiz-adv-x="2179" 
d="M975 1516q-41 0 -71 29t-30 69t30 69t71 29q40 0 68 -29t28 -69t-28 -69t-68 -29zM1268 1516q-40 0 -69.5 29t-29.5 69t29.5 69t69.5 29t69 -29t29 -69t-29 -69t-69 -29zM2251 1434v-13l-164 -41l-418 -1380h-65l-156 -14l-352 1110l-348 -1096h-66l-156 -14l-428 1407
l-139 28v13h516v-13l-147 -32l385 -1285h6l344 1090l-76 240h227l420 -1330h4l385 1278l-161 39v13h389z" />
    <glyph glyph-name="wdieresis" unicode="&#x1e85;" horiz-adv-x="1476" 
d="M666 1288q-41 0 -71 29t-30 69t30 69.5t71 29.5q39 0 67.5 -29.5t28.5 -69.5t-28 -69t-68 -29zM958 1288q-40 0 -69 29t-29 69t29 69.5t69 29.5t69.5 -29.5t29.5 -69.5t-29.5 -69t-69.5 -29zM-61 954v9h444v-9l-125 -26l272 -852l193 629l-88 258h201l288 -908l271 863
l-142 32v13h336v-13l-159 -35l-283 -919h-35l-145 -10l-228 665l-190 -624l10 -31h-43l-151 -10l-304 942z" />
    <glyph glyph-name="Ygrave" unicode="&#x1ef2;" 
d="M653 1536h-65l-320 262l56 25l155 -23zM1184 1434v-13l-160 -35l-354 -724v-629l137 -21v-12h-479v12l137 21v618l-377 750l-129 24v9h461v-9l-119 -24l340 -684l2 -17l334 689l-129 32v13h336z" />
    <glyph glyph-name="ygrave" unicode="&#x1ef3;" 
d="M885 1112h-58l-352 365v2l53 20l142 -20q0 -14 107.5 -190t107.5 -177zM707 963h364v-13l-174 -35l-424 -1228q-15 -58 -69.5 -110t-104.5 -78t-88 -36q-33 0 -154 64l95 151q111 -79 163 -79q25 0 42.5 5t39.5 26t37 59l144 370l-142 -22l-362 901l-94 14v11h393v-9
l-99 -18l322 -784l-2 -33l2 4l252 795l-141 32v13z" />
    <glyph glyph-name="endash" unicode="&#x2013;" horiz-adv-x="882" 
d="M61 682h760v-49h-760v49z" />
    <glyph glyph-name="emdash" unicode="&#x2014;" horiz-adv-x="1560" 
d="M61 682h1438v-49h-1438v49z" />
    <glyph glyph-name="quoteleft" unicode="&#x2018;" horiz-adv-x="204" 
d="M233 1262l-124 -132q-37 0 -71 40.5t-34 89.5q0 10 91.5 112t150.5 164l16 -14q-11 -12 -47 -47.5t-54 -60t-18 -42.5q0 -110 90 -110z" />
    <glyph glyph-name="quoteright" unicode="&#x2019;" horiz-adv-x="307" 
d="M45 1438l125 131q37 0 70.5 -40t33.5 -89q0 -11 -115.5 -158t-146.5 -180l-16 14q2 2 20.5 23t26.5 30t25.5 30.5t26 35t19.5 31.5t16 33t5 28q0 111 -90 111z" />
    <glyph glyph-name="quotesinglbase" unicode="&#x201a;" 
d="M20 70l125 131q37 0 71 -40t34 -89q0 -11 -106 -148.5t-136 -169.5l-10 13q31 36 50 59.5t41 63.5t22 69q0 111 -91 111z" />
    <glyph glyph-name="quotedblleft" unicode="&#x201c;" horiz-adv-x="561" 
d="M203 1262l-125 -132q-37 0 -71 40.5t-34 89.5q0 10 91.5 112t150.5 164l16 -14q-10 -12 -46.5 -48t-54 -60t-17.5 -42q0 -110 90 -110zM489 1262l-124 -132q-37 0 -71 40.5t-34 89.5q0 10 91.5 112t150.5 164l16 -14q-11 -12 -47 -47.5t-54 -60t-18 -42.5q0 -110 90 -110
z" />
    <glyph glyph-name="quotedblright" unicode="&#x201d;" horiz-adv-x="655" 
d="M2 1278q90 0 90 111q0 13 -5 28t-15.5 32.5t-20 32t-26 34.5t-25.5 30t-26.5 29.5t-20.5 23.5l16 15q31 -33 146.5 -180t115.5 -158q0 -49 -33.5 -89t-70.5 -40zM248 1278q90 0 90 111q0 13 -5 28t-15.5 32.5t-20 32t-26 34.5t-25.5 30t-26.5 29.5t-20.5 23.5l16 15
q31 -33 146.5 -180t115.5 -158q0 -49 -33.5 -89t-70.5 -40z" />
    <glyph glyph-name="quotedblbase" unicode="&#x201e;" 
d="M145 201q37 0 71 -40t34 -89q0 -11 -106 -148.5t-136 -169.5l-10 13q31 36 50 59.5t41 63.5t22 69q0 111 -91 111z" />
    <glyph glyph-name="dagger" unicode="&#x2020;" 
 />
    <glyph glyph-name="daggerdbl" unicode="&#x2021;" 
 />
    <glyph glyph-name="bullet" unicode="&#x2022;" horiz-adv-x="1167" 
d="M561 274q-127 0 -217 92.5t-90 223.5q0 125 90.5 215t216.5 90q129 0 219 -89.5t90 -215.5q0 -132 -89.5 -224t-219.5 -92z" />
    <glyph glyph-name="ellipsis" unicode="&#x2026;" horiz-adv-x="1167" 
 />
    <glyph glyph-name="perthousand" unicode="&#x2030;" horiz-adv-x="2066" 
d="M975 1536h125l-658 -1622h-116zM598 1188q0 -55 -24 -103.5t-58.5 -80t-75 -55.5t-70.5 -35t-48 -13q-122 0 -184 70.5t-62 195.5q0 57 33.5 111.5t79.5 90t91 57.5t72 24q120 -1 183 -70t63 -192zM358 936q37 0 64 21.5t39.5 56t18 67t5.5 64.5q0 110 -53.5 186
t-118.5 76q-38 0 -64 -17t-39.5 -47.5t-18.5 -64.5t-5 -78q0 -115 54.5 -189.5t117.5 -74.5zM1376 266q0 -68 -35.5 -125t-85 -89.5t-90.5 -50.5t-65 -21q-122 0 -184 70.5t-62 195.5q0 46 22 91t55.5 77.5t72 58.5t72 40t54.5 15q120 -1 183 -70t63 -192zM1991 266
q0 -55 -24.5 -103.5t-59 -80t-75 -55t-70.5 -34.5t-48 -13q-122 0 -184 70.5t-62 195.5q0 57 33.5 111.5t80 89.5t91.5 57t72 24q120 -1 183 -70t63 -192zM1137 14q37 0 64 21.5t39.5 56t18 67t5.5 64.5q0 110 -53.5 186t-118.5 76q-38 0 -64 -16.5t-39.5 -47.5t-18.5 -64.5
t-5 -77.5q0 -115 54.5 -190t117.5 -75zM1751 14q37 0 64 21.5t39.5 56t18 67t5.5 64.5q0 110 -53.5 186t-118.5 76q-38 0 -64 -16.5t-39.5 -47.5t-18.5 -64.5t-5 -77.5q0 -115 54.5 -190t117.5 -75z" />
    <glyph glyph-name="guilsinglleft" unicode="&#x2039;" 
 />
    <glyph glyph-name="guilsinglright" unicode="&#x203a;" 
 />
    <glyph glyph-name="fraction" unicode="&#x2044;" horiz-adv-x="1056" 
d="M729 1536h125l-535 -1622h-116z" />
    <glyph glyph-name="Euro" unicode="&#x20ac;" horiz-adv-x="1269" 
d="M864 236l17 -15q-22 -35 -143.5 -119t-205.5 -127q-211 2 -344 126t-137 337h-74v21l74 4q0 24 8 74l-82 4v20h86q40 164 177 286t311 148q166 0 258 -32l45 -267l-20 -4q-45 108 -132.5 189.5t-189.5 81.5q-78 0 -141.5 -61t-97.5 -152.5t-37 -190.5l456 -6v-8l-18 -15
l-438 5q0 -49 2 -72l454 -8v-6l-18 -17l-434 4q15 -167 95 -242t255 -75q69 0 158 39.5t116 77.5z" />
    <glyph glyph-name="trademark" unicode="&#x2122;" horiz-adv-x="3088" 
d="M1120 1442h27l47 -387h-12q-33 68 -99.5 177t-117.5 163h-263v-1321l240 -62v-12h-684v12l240 62v1321h-258q-51 -54 -117.5 -163t-99.5 -177h-13l47 387h27q54 -8 121 -8h794q67 0 121 8zM2877 37l160 -25v-12h-520v12l160 25l-19 1274l-547 -1315h-34l-572 1364
l2 -1311l207 -37v-12h-459v12l189 35l8 1333l-180 27v27h241l193 6l477 -1127v-6l473 1127v4l94 -4h273v-27l-164 -25z" />
    <glyph glyph-name="arrowleft" unicode="&#x2190;" 
 />
    <glyph glyph-name="arrowup" unicode="&#x2191;" 
 />
    <glyph glyph-name="arrowright" unicode="&#x2192;" 
 />
    <glyph glyph-name="arrowdown" unicode="&#x2193;" 
 />
    <glyph glyph-name="arrowboth" unicode="&#x2194;" 
 />
    <glyph glyph-name="arrowupdn" unicode="&#x2195;" 
 />
    <glyph glyph-name="uni2196" unicode="&#x2196;" 
 />
    <glyph glyph-name="uni2197" unicode="&#x2197;" 
 />
    <glyph glyph-name="uni2198" unicode="&#x2198;" 
 />
    <glyph glyph-name="uni2199" unicode="&#x2199;" 
 />
    <glyph glyph-name="partialdiff" unicode="&#x2202;" 
 />
    <glyph glyph-name="emptyset" unicode="&#x2205;" 
 />
    <glyph glyph-name="product" unicode="&#x220f;" 
 />
    <glyph glyph-name="summation" unicode="&#x2211;" 
 />
    <glyph glyph-name="minus" unicode="&#x2212;" 
 />
    <glyph glyph-name="radical" unicode="&#x221a;" 
 />
    <glyph glyph-name="infinity" unicode="&#x221e;" 
 />
    <glyph glyph-name="integral" unicode="&#x222b;" 
 />
    <glyph glyph-name="approxequal" unicode="&#x2248;" 
 />
    <glyph glyph-name="notequal" unicode="&#x2260;" 
 />
    <glyph glyph-name="lessequal" unicode="&#x2264;" 
 />
    <glyph glyph-name="greaterequal" unicode="&#x2265;" 
 />
    <glyph glyph-name="lozenge" unicode="&#x25ca;" 
 />
    <glyph glyph-name="A.001" horiz-adv-x="1351" 
d="M1278 37l156 -25v-12h-516v12l137 21l-146 471h-549l-161 -461l180 -31v-12h-410v12l168 33l481 1348l-153 28v13h225l137 10l449 -1407h2zM375 543h522l-240 774l-4 20v2z" />
    <glyph glyph-name="Ccedilla.001" horiz-adv-x="1280" 
d="M1260 328q-26 -42 -150.5 -130t-257.5 -165l-297 -201q40 26 97.5 36.5t111.5 3.5t92.5 -42t38.5 -94q0 -56 -24.5 -103t-58.5 -73t-71 -44.5t-60.5 -25t-29.5 -6.5q-31 0 -79.5 16t-90 45.5t-41.5 59.5q39 31 88 43q0 -50 47 -98t82 -48q20 0 42.5 10t46 30.5t38.5 61
t15 93.5q0 41 -19.5 68t-47.5 38t-66 15t-68 1.5t-62 -6t-40 -3.5l-7 8l207 157q-143 7 -263.5 57.5t-207.5 137.5t-135.5 214.5t-48.5 281.5q0 142 59.5 278.5t159 241t233 177t277.5 95.5q244 0 381 -49l63 -389l-26 -6q-30 72 -77.5 140.5t-108 126.5t-136.5 93t-153 35
q-89 0 -178.5 -56t-155.5 -144t-107 -199t-41 -217q0 -325 150.5 -498.5t443.5 -173.5q96 0 230.5 89t179.5 155z" />
    <glyph glyph-name="F.001" horiz-adv-x="1189" 
d="M1135 1440l32 -383h-12q-37 75 -106 186.5t-117 151.5h-531v-697h412l88 199h12v-434h-12l-88 196h-412v-620l240 -27v-12h-602v12l158 27v1356l-179 26v13h1065z" />
    <glyph glyph-name="J.001" horiz-adv-x="821" 
d="M815 1434v-19l-217 -39v-1401q0 -83 -71 -211t-167.5 -225t-162.5 -100q-69 4 -134 27.5t-104 56.5l125 125q116 -90 186 -90q104 0 113 82l10 1742l-205 33v19l324 -2z" />
    <glyph glyph-name="K.001" horiz-adv-x="1320" 
d="M1212 33l136 -23v-10h-353l-14 33l-451 715l-149 -177l10 -538l125 -23v-10h-455v10l125 23l13 1364l-138 24v13l301 -2l177 2v-19l-136 -16l-47 -778h13l645 763l-170 37v13h389v-13l-164 -41l-399 -471l538 -876h4z" />
    <glyph glyph-name="N.001" horiz-adv-x="1341" 
d="M1290 1434v-13l-207 -37l-2 -1384h-102l-852 1354l2 -1305l207 -37v-12h-459v12l189 35l8 1333l-180 27v27h245l193 6l694 -1096l-6 1042l-229 35v13h499z" />
    <glyph glyph-name="O.001" horiz-adv-x="1468" 
d="M1419 743q0 -108 -34.5 -207.5t-90.5 -174.5t-127.5 -140.5t-145 -110t-144 -77t-123.5 -48t-84 -16.5q-322 0 -482.5 192t-160.5 533q0 98 33 191.5t86.5 167t122 139.5t140 113t139.5 82t121 53t85 20q313 -7 489 -197.5t176 -519.5zM750 59q139 0 241.5 78
t152.5 205.5t50 286.5q0 359 -142.5 545t-379.5 186q-105 0 -190 -46.5t-139.5 -127t-84 -185.5t-29.5 -223q0 -133 35 -252t90.5 -202t125 -144.5t139 -91t131.5 -29.5z" />
    <glyph glyph-name="R.001" horiz-adv-x="1388" 
d="M61 0v12l199 41v1327l-178 41v13l625 2q226 5 354.5 -70.5t128.5 -230.5q1 -90 -30.5 -165t-79.5 -124t-111 -85.5t-120 -54.5t-112 -26l193 -41q2 0 32.5 -62t78 -150t99.5 -176t105.5 -150t87.5 -62l125 76l12 -19l-141 -98l-268 2q-56 83 -152 255.5t-164.5 286.5
t-93.5 120l-186 -3v-606l227 -41v-12h-631zM465 727q94 -16 227 -16q152 0 232 98.5t80 282.5q0 63 -21.5 118.5t-63.5 98.5t-109.5 68t-154.5 26q-171 -10 -190 -27v-649z" />
    <glyph glyph-name="Wcircumflex.001" horiz-adv-x="2179" 
d="M1122 1696l-217 -150l-33 17l230 276h41l229 -276l-33 -17zM2251 1434v-13l-164 -41l-418 -1380h-65l-156 -14l-352 1110l-348 -1096h-66l-156 -14l-428 1407l-139 28v13h516v-13l-147 -32l385 -1285h6l344 1090l-76 240h227l420 -1330h4l385 1278l-161 39v13h389z" />
    <glyph glyph-name="X.001" horiz-adv-x="1331" 
d="M1145 33l117 -25v-8h-439v8l105 23l-367 639l-395 -629h4l143 -33v-12h-372v12l159 33l437 670l-396 690l-114 24v9h438v-9l-109 -22l297 -518l334 510l-123 30v13h336v-13l-168 -32l-358 -545z" />
    <glyph glyph-name="R.002" horiz-adv-x="1388" 
d="M61 0v12l199 41v1327l-178 41v13l625 2q226 5 354.5 -70.5t128.5 -230.5q1 -90 -30.5 -165t-79.5 -124t-111 -85.5t-120 -54.5t-112 -26l193 -41q2 0 32.5 -62t78 -150t99.5 -176t105.5 -150t87.5 -62l125 76l12 -19l-141 -98l-268 2q-56 83 -152 255.5t-164.5 286.5
t-93.5 120l-186 -3v-606l227 -41v-12h-631zM465 727q94 -16 227 -16q152 0 232 98.5t80 282.5q0 63 -21.5 118.5t-63.5 98.5t-109.5 68t-154.5 26q-171 -10 -190 -27v-649z" />
    <glyph glyph-name="T.002" horiz-adv-x="1234" 
d="M965 1395h-263v-1321l240 -62v-12h-684v12l240 62v1321h-258q-51 -54 -117.5 -163t-99.5 -177h-13l47 387h27q54 -8 121 -8h794q67 0 121 8h27l47 -387h-12q-33 68 -99.5 177t-117.5 163z" />
    <glyph glyph-name="R.003" horiz-adv-x="1388" 
d="M61 0v12l199 41v1327l-178 41v13l625 2q226 5 354.5 -70.5t128.5 -230.5q1 -90 -30.5 -165t-79.5 -124t-111 -85.5t-120 -54.5t-112 -26l193 -41q2 0 32.5 -62t78 -150t99.5 -176t105.5 -150t87.5 -62l125 76l12 -19l-141 -98l-268 2q-56 83 -152 255.5t-164.5 286.5
t-93.5 120l-186 -3v-606l227 -41v-12h-631zM465 727q94 -16 227 -16q152 0 232 98.5t80 282.5q0 63 -21.5 118.5t-63.5 98.5t-109.5 68t-154.5 26q-171 -10 -190 -27v-649z" />
    <glyph glyph-name="T.003" horiz-adv-x="1204" 
d="M965 1395h-263v-1321l240 -62v-12h-684v12l240 62v1321h-258q-51 -54 -117.5 -163t-99.5 -177h-13l47 387h27q54 -8 121 -8h794q67 0 121 8h27l47 -387h-12q-33 68 -99.5 177t-117.5 163z" />
    <glyph glyph-name="T.004" horiz-adv-x="1193" 
d="M965 1395h-263v-1321l240 -62v-12h-684v12l240 62v1321h-258q-51 -54 -117.5 -163t-99.5 -177h-13l47 387h27q54 -8 121 -8h794q67 0 121 8h27l47 -387h-12q-33 68 -99.5 177t-117.5 163z" />
    <glyph glyph-name="d.001" horiz-adv-x="1112" 
d="M51 455q0 91 36.5 175.5t93.5 145t126 108t133 72.5t115 31q53 0 116 -16t91 -33v551l-158 35v12h318l24 -2v-899l-2 -590l148 -33v-12h-330l20 305h-8q-86 -112 -174 -203.5t-149 -115.5q-80 0 -152.5 32t-127.5 90.5t-87.5 148.5t-32.5 198zM225 539q0 -81 29.5 -160.5
t74 -134.5t96.5 -89t97 -34q51 0 108.5 53.5t127.5 142.5l6 281q-3 132 -70.5 219.5t-179.5 87.5q-157 0 -223 -87.5t-66 -278.5z" />
    <glyph glyph-name="e.001" horiz-adv-x="937" 
d="M864 229l17 -14q-126 -126 -318 -221q-44 -12 -104 -12q-188 0 -298 134.5t-110 348.5q0 198 120 338.5t321 183.5q108 3 180.5 -22t115.5 -83t61.5 -140t20.5 -203l-653 -4q3 -188 102.5 -309.5t274.5 -121.5q80 0 152.5 37.5t117.5 87.5zM444 930q-55 -2 -95.5 -20
t-65.5 -48.5t-40 -79t-20.5 -102.5t-5.5 -127l457 20q8 20 8 31q0 156 -68 242.5t-170 83.5z" />
    <glyph glyph-name="idieresis.001" horiz-adv-x="524" 
d="M117 1270q-41 0 -71 29t-30 69t30 69t71 29q40 0 68 -29t28 -69t-28 -69t-68 -29zM410 1270q-40 0 -69.5 29t-29.5 69t29.5 69t69.5 29t69 -29t29 -69t-29 -69t-69 -29zM39 0v10l137 23v897l-117 20v13h275l24 -5v-925l136 -23v-10h-455z" />
    <glyph glyph-name="igrave.001" horiz-adv-x="595" 
d="M426 1112h-57l-353 365v2l54 20l141 -20q0 -14 107.5 -190t107.5 -177zM444 33l136 -23v-10h-455v10l137 23v897l-117 20v13h275l24 -5v-925z" />
    <glyph glyph-name="k.001" horiz-adv-x="1005" 
d="M942 33l135 -23v-10h-479v10l137 23h-4l-317 512l-78 -72v-440l135 -23v-10h-455v10l138 23v1456l-138 35v12h303l25 -2l-33 -1032h13l438 416h-2l-133 32v13h366v-13l-170 -35l-321 -292l35 28z" />
    <glyph glyph-name="r.001" horiz-adv-x="759" 
d="M571 977q114 -5 189 -80l-123 -152q-40 45 -94 66q-115 41 -205 -70v-708l143 -23v-10h-463v10l138 23v882l-140 35v13h291l25 -5l-19 -202h9q62 78 139.5 144.5t109.5 76.5z" />
    <glyph glyph-name="t.001" horiz-adv-x="657" 
d="M10 903v21l162 67l137 228l25 -2l-8 -259h329v-59l-77 -10l-242 6l4 -637q-1 -76 31.5 -120t79.5 -46q50 0 90.5 16.5t113.5 67.5l13 -12q-87 -70 -138.5 -108.5t-123.5 -82.5q-116 9 -174.5 69t-69.5 175l-8 682h-7z" />
    <glyph glyph-name="igrave.002" horiz-adv-x="583" 
d="M514 1499q51 -20 53 -20v-2l-352 -365h-57q0 1 107.5 177t107.5 190zM336 958v-925l135 -23v-10h-455v10l138 23v897l-117 20v13h274z" />
    <glyph glyph-name="k.002" horiz-adv-x="1032" 
d="M16 0v10l138 23v1456l-138 35v12h303l25 -2l-33 -1032h13l438 416h-2l-133 32v13h366v-13l-170 -35l-321 -292l35 28l405 -618l135 -23v-10h-479v10l137 23h-4l-317 512l-78 -72v-440l135 -23v-10h-455z" />
    <glyph glyph-name="g.001" horiz-adv-x="997" 
d="M23 -162q41 33 130.5 88.5t110.5 69.5h-12q-36 0 -79.5 51.5t-43.5 99.5q15 26 36 51t54.5 59t42.5 44q-106 39 -166.5 122t-60.5 187q0 59 32 118t81.5 104.5t107 81t111.5 54.5t92 19q116 0 205 -39q67 -20 143 -20q115 0 115 59l108 -31q-20 -91 -65 -94
q-19 0 -99.5 19.5t-91.5 19.5q-21 0 -29 -2q117 -93 117 -242q0 -61 -50 -132.5t-118 -126t-139.5 -91.5t-114.5 -37q-80 0 -157 23q-31 -25 -47 -48t-17 -59q0 -39 49 -43q31 -3 250 -12q88 -3 154 -11.5t127 -27t99.5 -48t61 -75.5t21.5 -108q-1 -68 -63 -132t-143.5 -104
t-154 -64t-104.5 -24q-27 -2 -80 -2q-105 4 -179.5 19.5t-119.5 40t-71 63.5t-34.5 80t-8.5 100zM221 649q0 -159 57 -251.5t166 -92.5q103 0 167.5 87.5t64.5 228.5q0 165 -61 248t-171 83q-105 0 -164 -78t-59 -225zM213 -190q0 -99 70.5 -161t171.5 -65
q104 -3 178.5 13.5t115.5 48.5t59.5 71.5t18.5 89.5q0 41 -14 71.5t-46 51t-72 33.5t-103 20t-126 9.5t-155 3.5q-98 -88 -98 -186z" />
    <glyph glyph-name="f_h.liga.001" horiz-adv-x="1814" 
d="M1657 33l137 -23v-10h-459v10l140 23v545q0 118 -43 193t-123 75q-193 0 -281 -105v-708l135 -23v-10h-454v10l137 23v1372l-144 -51l-2 -2h-2v2q-4 3 -19 14t-19 14t-17 12.5t-18 12t-16.5 9.5t-18 9.5t-17 6.5t-19 5.5t-19 3t-21.5 1.5q-82 0 -133 -88l-4 -416h295v-23
l-78 -10l-217 6l-6 -876h8v-2l135 -23v-10h-455v10l129 21v884h-137v29l137 8v97q0 74 74.5 196.5t171.5 217.5t154 98q102 -7 200 -60q84 6 209 37l25 -4l-18 -778h8q62 76 176 152.5t149 78.5q170 -9 245 -102.5t75 -274.5v-577z" />
    <glyph glyph-name="f_h.liga.002" horiz-adv-x="1814" 
d="M1657 33l137 -23v-10h-459v10l140 23v545q0 118 -43 193t-123 75q-193 0 -281 -105v-708l135 -23v-10h-454v10l137 23v1372l-144 -51l-2 -2h-2v2q-4 3 -19 14t-19 14t-17 12.5t-18 12t-16.5 9.5t-18 9.5t-17 6.5t-19 5.5t-19 3t-21.5 1.5q-82 0 -133 -88l-4 -416h295v-23
l-78 -10l-217 6l-6 -876h8v-2l135 -23v-10h-455v10l129 21v884h-137v29l137 8v97q0 74 74.5 196.5t171.5 217.5t154 98q102 -7 200 -60q84 6 209 37l25 -4l-18 -778h8q62 76 176 152.5t149 78.5q170 -9 245 -102.5t75 -274.5v-577z" />
    <glyph glyph-name="T_i.dlig" horiz-adv-x="1691" 
d="M1454 1284q-44 0 -75 31.5t-31 77.5q0 44 31 75t75 31t75.5 -31t31.5 -75q0 -46 -31.5 -77.5t-75.5 -31.5zM1120 1442h27l47 -387h-12q-33 68 -99.5 177t-117.5 163h-263v-1321l240 -62v-12h-684v12l240 62v1321h-258q-51 -54 -117.5 -163t-99.5 -177h-13l47 387h27
q54 -8 121 -8h794q67 0 121 8zM1540 33l135 -23v-10h-454v10l137 23v895l-117 22v13h275l24 -5v-925z" />
    <glyph glyph-name="W_h.dlig" horiz-adv-x="3330" 
d="M3172 33l138 -23v-10h-459v10l139 23v545q0 118 -43 193t-123 75q-178 0 -268 -90h2v-723l135 -23v-10h-459v10l142 23l-27 1315q-120 -6 -187 -41t-104 -119l-389 -1188h-65l-156 -14l-352 1110l-348 -1096h-66l-156 -14l-428 1407l-139 28v13h516v-13l-147 -32
l385 -1285h6l344 1090l-76 240h227l420 -1330h6v-2l375 1135l51 195h461l25 -2l-19 -666q64 75 175.5 148t144.5 75q170 -9 244.5 -102.5t74.5 -274.5v-577z" />
    <glyph glyph-name="c_t.dlig" horiz-adv-x="1497" 
d="M1495 176l12 -12q-87 -70 -138.5 -108.5t-123.5 -82.5q-116 9 -174.5 69t-69.5 175l-8 682h-6l-137 4v21l162 67l123 203q-2 1 -46 22t-91.5 33.5t-104.5 12.5q-39 0 -86 -19.5t-92 -53.5t-75.5 -90.5t-31.5 -121.5v-4q91 -26 149.5 -89.5t61.5 -150.5
q-35 -22 -75.5 -24.5t-88.5 4.5q-12 17 -47.5 87t-69 112t-69.5 42q-80 0 -139.5 -61.5t-87 -152.5t-27.5 -193q0 -127 39.5 -227t120 -160t190.5 -60q63 0 130.5 56t103.5 110l18 -12q-33 -49 -135.5 -148t-173.5 -133q-222 2 -353.5 127.5t-131.5 345.5q0 198 142 354
t343 187h22q-6 15 -6 33q0 57 29.5 105t72.5 77.5t94.5 50t93.5 29t71 8.5q60 0 111.5 -15.5t93 -33.5t65.5 -22l19 -2l-9 -259h330v-59l-78 -10l-241 6l4 -637q-1 -76 31 -120t79 -46q50 0 91 16.5t114 67.5z" />
    <glyph glyph-name="g_u.dlig" horiz-adv-x="2123" 
d="M1968 47l139 -35v-12h-290l-25 4l18 217h-8q-63 -79 -173.5 -161.5t-143.5 -84.5q-171 9 -245.5 100t-74.5 271v512q-113 -13 -157 -4q-28 4 -83.5 16t-99.5 21.5t-51 9.5q-21 0 -29 -2q117 -93 117 -242q0 -61 -50 -132.5t-118 -126t-139.5 -91.5t-114.5 -37
q-80 0 -157 23q-31 -25 -47 -48t-17 -59q-1 -22 12.5 -31.5t36.5 -11.5q31 -3 250 -12q88 -3 154 -11.5t127 -27t99.5 -48t61 -75.5t21.5 -108q-1 -68 -63 -132t-143.5 -104t-154 -64t-104.5 -24q-27 -2 -80 -2q-105 4 -179.5 19.5t-119.5 40t-71 63.5t-34.5 80t-8.5 100
q32 26 73.5 52.5t93.5 57t80 48.5h-18q-37 0 -80.5 51.5t-42.5 99.5q17 30 38.5 55.5t52.5 56t42 42.5q-106 39 -166.5 122t-60.5 187q0 59 32 118t81.5 104.5t107 81t111.5 54.5t92 19q116 0 205 -39q67 -20 143 -20q50 0 104.5 2t146.5 9t150 26t58 47h6l76 -72v-557
q0 -266 165 -266q58 0 138.5 27.5t134.5 91.5v694l-141 22v11h323v-916zM444 305q103 0 167.5 87.5t64.5 228.5q0 165 -61 248t-171 83q-105 0 -164 -78t-59 -225q0 -159 57 -251.5t166 -92.5zM827 -193q0 41 -14 71.5t-46 51t-72 33.5t-103 20t-126 9.5t-155 3.5
q-98 -88 -98 -186q0 -99 70.5 -161t171.5 -65q104 -3 178.5 13.5t115.5 48.5t59.5 71.5t18.5 89.5z" />
    <glyph glyph-name="i_x.dlig" horiz-adv-x="1456" 
d="M250 1284q-44 0 -75.5 31.5t-31.5 77.5q0 44 31.5 75t75.5 31t75 -31t31 -75q0 -46 -31 -77.5t-75 -31.5zM1376 33l121 -25v-8h-438v8l102 21l-250 381l-254 -365h2l123 -33v-12h-766v10l138 23v895l-117 22v13h274l25 -5v-925l117 -19l163 29l273 401l-318 486l-118 24
v9h438v-9l-107 -22l230 -348l235 338l-123 28v13h336v-13l-170 -28l-258 -371z" />
    <glyph glyph-name="i_x_i.dlig" horiz-adv-x="1943" 
d="M250 1284q-44 0 -75.5 31.5t-31.5 77.5q0 44 31.5 75t75.5 31t75 -31t31 -75q0 -46 -31 -77.5t-75 -31.5zM1706 1284q-44 0 -75.5 31.5t-31.5 77.5q0 44 31.5 75t75.5 31t75 -31t31 -75q0 -46 -31 -77.5t-75 -31.5zM1792 33l135 -23v-10h-868v8l102 21l-250 381
l-254 -365h2l123 -33v-12h-766v10l138 23v895l-117 22v13h274l25 -5v-925l117 -19l163 29l273 401l-318 486l-118 24v9h438v-9l-107 -22l230 -348l235 338l-123 28v13h336v-13l-170 -28l-258 -371l342 -518l105 -21l129 21v895l-117 22v13h274l25 -5v-925z" />
    <glyph glyph-name="s_t.dlig" horiz-adv-x="1445" 
d="M1444 176l12 -12q-87 -70 -138.5 -108.5t-123.5 -82.5q-116 9 -174.5 69t-69.5 175l-8 682h-6l-137 4v21l162 67l114 191q-2 1 -39.5 16.5t-62.5 24t-72 17.5t-92 9q-45 1 -87.5 -12.5t-79.5 -42t-59.5 -79t-23.5 -116.5q0 -27 8 -55l84 -31l43 -211h-14l-125 146
q-93 93 -223 96q-73 -4 -108.5 -42.5t-35.5 -102.5q0 -38 30 -73t78.5 -64t106.5 -58.5t116 -61.5t106 -67t77.5 -81.5t28.5 -98.5q0 -262 -366 -324q-73 0 -173 46t-133 79l4 238l15 2l96 -211q50 -45 118.5 -79.5t123.5 -35.5q72 0 118 47.5t46 149.5q0 34 -22.5 65
t-59 54.5t-83.5 48.5t-95.5 46.5t-95.5 49.5t-83.5 57.5t-59 70t-22.5 87.5q0 107 90.5 190t239.5 111q30 0 86 -16q-4 20 -4 30q0 48 21.5 90t56 71t74 52t78 36t66.5 19.5t42 6.5q60 0 120.5 -12t110.5 -27.5t66 -17.5l16 -2l-8 -259h330v-59l-78 -10l-242 6l4 -637
q-1 -76 31.5 -120t79.5 -46q50 0 91 16.5t114 67.5z" />
    <glyph glyph-name="v_i.dlig" horiz-adv-x="1413" 
d="M1176 1284q-44 0 -75.5 31.5t-31.5 77.5q0 44 31.5 75t75.5 31t75 -31t31 -75q0 -46 -31 -77.5t-75 -31.5zM1262 33l135 -23v-10h-455v10l137 23v895l-86 16l-131 -29h-2l-301 -919h-43l-151 -10l-304 942l-122 26v9h444v-9l-125 -26l279 -871v-2l282 863h-2l-131 32v13
h551l25 -5v-925z" />
    <glyph glyph-name="x_i.dlig" horiz-adv-x="1527" 
d="M1290 1284q-44 0 -75 31.5t-31 77.5q0 44 31 75t75 31t75.5 -31t31.5 -75q0 -46 -31.5 -77.5t-75.5 -31.5zM569 549l340 -516l121 -25v-8h-438v8l102 21l-252 383l-270 -367l123 -33v-12h-336v12l172 33l289 401l-316 484l-118 24v9h438v-9l-107 -22l232 -350l252 342
l-121 30v13h336v-13l-172 -32zM1376 33l135 -23v-10h-454v10l137 23v897l-117 20v13h275l24 -5v-925z" />
    <glyph glyph-name="x_i_x.dlig" horiz-adv-x="2521" 
d="M1290 1284q-44 0 -75 31.5t-31 77.5q0 44 31 75t75 31t75.5 -31t31.5 -75q0 -46 -31.5 -77.5t-75.5 -31.5zM569 549l340 -516l121 -25v-8h-438v8l102 21l-252 383l-270 -367l123 -33v-12h-336v12l172 33l289 401l-316 484l-118 24v9h438v-9l-107 -22l232 -350l252 342
l-121 30v13h336v-13l-172 -32zM2441 33l121 -25v-8h-438v8l102 21l-252 383l-270 -367l123 -33v-12h-770v10l137 23v897l-117 20v13h275l24 -5v-925l119 -21l168 33l289 401l-316 484l-118 24v9h438v-9l-107 -22l232 -350l252 342l-121 30v13h336v-13l-172 -32l-275 -373z
" />
    <glyph glyph-name="x_n.dlig" horiz-adv-x="2084" 
d="M1927 33l137 -23v-10h-458v10l139 23v545q0 268 -166 268q-163 0 -272 -105v-708l139 -23v-10h-875v8l103 21l-250 381l-254 -365h2l123 -33v-12h-336v12l170 31l272 401l-317 486l-119 24v9h438v-9l-106 -22l229 -348l236 338l-123 28v13h336v-13l-170 -28l-258 -371
l342 -518l104 -21l131 21v882l-139 35v13h291l24 -5l-18 -202h8q81 81 184.5 155t133.5 76q170 -9 244.5 -102.5t74.5 -274.5v-577z" />
    <glyph glyph-name="x_t.lig" horiz-adv-x="1626" 
d="M979 903v21l162 67l137 228l25 -2l-9 -259h330v-59l-78 -10l-241 6l4 -637q-1 -76 31 -120t79 -46q50 0 91 16.5t114 67.5l12 -12q-87 -70 -138.5 -108.5t-123.5 -82.5q-116 9 -174.5 69t-69.5 175l-8 682h-6zM-41 0v12l170 31l272 401l-317 486l-119 24v9h438v-9
l-106 -22l229 -348l236 338l-123 28v13h336v-13l-170 -28l-258 -371l342 -518l121 -25v-8h-439v8l103 21l-250 381l-254 -365h2l123 -33v-12h-336z" />
    <glyph glyph-name="cent.001" horiz-adv-x="839" 
d="M23 446q0 198 142 354t343 187q125 0 216.5 -71.5t94.5 -182.5q-39 -17 -76 -21t-88 1q-12 17 -47.5 87t-69 112t-69.5 42q-80 0 -139.5 -61.5t-87 -152.5t-27.5 -193q0 -127 39.5 -227t120 -160t190.5 -60q44 0 93.5 34.5t78 68t51.5 67.5l29 -16q-33 -49 -135.5 -148
t-173.5 -133q-222 2 -353.5 127.5t-131.5 345.5z" />
    <glyph glyph-name="uni0308.case" horiz-adv-x="0" 
d="M-748 1516q-41 0 -70.5 29t-29.5 69t29.5 69t70.5 29q40 0 68.5 -29t28.5 -69t-28.5 -69t-68.5 -29zM-455 1516q-40 0 -69 29t-29 69t29 69t69 29t69.5 -29t29.5 -69t-29.5 -69t-69.5 -29z" />
    <glyph glyph-name="gravecomb.case" horiz-adv-x="0" 
d="M-596 1536l-174 264l-156 23l-55 -25l319 -262h66z" />
    <glyph glyph-name="acutecomb.case" horiz-adv-x="0" 
d="M-612 1509h65l320 263l-56 24l-155 -22z" />
    <glyph glyph-name="uni0302.case" horiz-adv-x="0" 
d="M-61 1563l-33 -17l-217 150l-217 -150l-33 17l229 276h41z" />
    <glyph glyph-name="uni030A.case" horiz-adv-x="0" 
d="M-666 1536q-72 0 -123 51t-51 123q0 71 51 121.5t123 50.5q70 0 121 -51t51 -121q0 -72 -50.5 -123t-121.5 -51zM-666 1597q42 0 68.5 34t26.5 81q0 43 -27 77t-68 34q-42 0 -69 -33.5t-27 -77.5q0 -47 26.5 -81t69.5 -34z" />
    <glyph glyph-name="tildecomb.case" horiz-adv-x="0" 
d="M-596 1536q0 37 17.5 73t39 59.5t52 46.5t45 31.5t30.5 16.5q40 0 87.5 -3t78 -5.5t64 -3.5t53.5 3t37.5 14.5t25 31.5t7.5 53h34q0 -36 -17.5 -71.5t-39 -59t-52 -46.5t-45 -31.5t-30.5 -16.5q-30 0 -76 4.5t-80.5 8.5t-73.5 2.5t-64 -10.5t-41.5 -33.5t-16.5 -63.5h-35
z" />
    <glyph glyph-name="uni0327.case" horiz-adv-x="0" 
d="M-395 78l127 28l-406 -274q40 26 97.5 36.5t111.5 3.5t92.5 -42t38.5 -94q0 -56 -24.5 -103t-58.5 -73t-71 -44.5t-60.5 -25t-29.5 -6.5q-31 0 -79.5 16t-89.5 45.5t-41 59.5q39 31 88 43q0 -50 47 -98t82 -48q20 0 42.5 10t45.5 30.5t38 61t15 93.5q0 41 -19.5 68
t-47.5 38t-66 15t-68 1.5t-62 -6t-40 -3.5l-6 8z" />
    <glyph glyph-name="NuovoGlifo" 
 />
    <glyph glyph-name="NuovoGlifo.001" 
 />
    <glyph glyph-name="NuovoGlifo.002" 
 />
    <glyph glyph-name="NuovoGlifo.003" 
 />
    <glyph glyph-name="NuovoGlifo.004" 
 />
    </font>
</defs>
</svg>
